<svg width="272" height="223" viewBox="0 0 272 223" fill="none" xmlns="http://www.w3.org/2000/svg">
<rect width="272" height="223" rx="8" fill="#F9FAFB"/>
<path d="M114.446 27.1392C113.823 27.1392 113.262 27.0199 112.765 26.7812C112.271 26.5393 111.877 26.2079 111.582 25.7869C111.287 25.366 111.13 24.8854 111.11 24.3452H112.601C112.638 24.7827 112.832 25.1423 113.183 25.424C113.534 25.7057 113.955 25.8466 114.446 25.8466C114.837 25.8466 115.183 25.7571 115.485 25.5781C115.79 25.3958 116.028 25.1456 116.201 24.8274C116.376 24.5092 116.464 24.1463 116.464 23.7386C116.464 23.3243 116.375 22.9548 116.196 22.63C116.017 22.3052 115.77 22.05 115.455 21.8643C115.143 21.6787 114.785 21.5843 114.381 21.581C114.073 21.581 113.763 21.634 113.451 21.7401C113.14 21.8461 112.888 21.9853 112.696 22.1577L111.289 21.9489L111.86 16.8182H117.458V18.1357H113.138L112.815 20.9844H112.875C113.074 20.7921 113.337 20.6314 113.665 20.5021C113.997 20.3729 114.351 20.3082 114.729 20.3082C115.349 20.3082 115.901 20.4557 116.385 20.7507C116.872 21.0457 117.255 21.4484 117.533 21.9588C117.815 22.4659 117.954 23.0492 117.951 23.7088C117.954 24.3684 117.805 24.9567 117.503 25.4737C117.205 25.9908 116.791 26.3984 116.26 26.6967C115.733 26.9917 115.128 27.1392 114.446 27.1392ZM123.311 27.169C122.526 27.1657 121.855 26.9586 121.298 26.5476C120.741 26.1366 120.315 25.5384 120.02 24.7528C119.725 23.9673 119.578 23.0211 119.578 21.9141C119.578 20.8104 119.725 19.8674 120.02 19.0852C120.318 18.303 120.746 17.7064 121.303 17.2955C121.863 16.8845 122.532 16.679 123.311 16.679C124.09 16.679 124.758 16.8861 125.315 17.3004C125.872 17.7114 126.298 18.308 126.593 19.0902C126.891 19.8691 127.04 20.8104 127.04 21.9141C127.04 23.0244 126.892 23.9723 126.597 24.7578C126.302 25.54 125.877 26.1383 125.32 26.5526C124.763 26.9635 124.093 27.169 123.311 27.169ZM123.311 25.8416C124.001 25.8416 124.539 25.5052 124.927 24.8324C125.318 24.1596 125.514 23.1868 125.514 21.9141C125.514 21.0689 125.424 20.3546 125.245 19.7713C125.07 19.1847 124.816 18.7405 124.485 18.4389C124.156 18.134 123.765 17.9815 123.311 17.9815C122.625 17.9815 122.087 18.3196 121.695 18.9957C121.304 19.6719 121.107 20.6446 121.104 21.9141C121.104 22.7625 121.192 23.4801 121.367 24.0668C121.546 24.6501 121.8 25.0926 122.128 25.3942C122.456 25.6925 122.851 25.8416 123.311 25.8416ZM134.118 25.0909V24.554C134.118 24.1695 134.198 23.8182 134.357 23.5C134.519 23.1785 134.755 22.9216 135.063 22.7294C135.374 22.5339 135.751 22.4361 136.191 22.4361C136.642 22.4361 137.02 22.5322 137.325 22.7244C137.63 22.9167 137.86 23.1735 138.016 23.495C138.175 23.8165 138.255 24.1695 138.255 24.554V25.0909C138.255 25.4754 138.175 25.8284 138.016 26.1499C137.857 26.468 137.623 26.7249 137.315 26.9205C137.01 27.1127 136.636 27.2088 136.191 27.2088C135.744 27.2088 135.366 27.1127 135.058 26.9205C134.75 26.7249 134.516 26.468 134.357 26.1499C134.198 25.8284 134.118 25.4754 134.118 25.0909ZM135.277 24.554V25.0909C135.277 25.3759 135.345 25.6345 135.48 25.8665C135.616 26.0985 135.853 26.2145 136.191 26.2145C136.526 26.2145 136.76 26.0985 136.892 25.8665C137.025 25.6345 137.091 25.3759 137.091 25.0909V24.554C137.091 24.2689 137.027 24.0104 136.897 23.7784C136.771 23.5464 136.536 23.4304 136.191 23.4304C135.86 23.4304 135.625 23.5464 135.485 23.7784C135.346 24.0104 135.277 24.2689 135.277 24.554ZM128.998 19.2642V18.7273C128.998 18.3428 129.077 17.9898 129.236 17.6683C129.399 17.3468 129.634 17.09 129.942 16.8977C130.254 16.7055 130.63 16.6094 131.071 16.6094C131.521 16.6094 131.899 16.7055 132.204 16.8977C132.509 17.09 132.739 17.3468 132.895 17.6683C133.051 17.9898 133.129 18.3428 133.129 18.7273V19.2642C133.129 19.6487 133.049 20.0017 132.89 20.3232C132.734 20.6413 132.502 20.8982 132.194 21.0938C131.889 21.286 131.515 21.3821 131.071 21.3821C130.62 21.3821 130.24 21.286 129.932 21.0938C129.627 20.8982 129.395 20.6413 129.236 20.3232C129.077 20.0017 128.998 19.6487 128.998 19.2642ZM130.161 18.7273V19.2642C130.161 19.5492 130.227 19.8078 130.36 20.0398C130.496 20.2718 130.733 20.3878 131.071 20.3878C131.402 20.3878 131.634 20.2718 131.767 20.0398C131.903 19.8078 131.971 19.5492 131.971 19.2642V18.7273C131.971 18.4422 131.906 18.1837 131.777 17.9517C131.647 17.7197 131.412 17.6037 131.071 17.6037C130.739 17.6037 130.504 17.7197 130.365 17.9517C130.229 18.1837 130.161 18.4422 130.161 18.7273ZM129.47 27L136.47 16.8182H137.658L130.658 27H129.47ZM147.339 27.1541C146.623 27.1541 145.998 26.9901 145.465 26.6619C144.931 26.3338 144.517 25.8748 144.222 25.2848C143.927 24.6948 143.779 24.0054 143.779 23.2166C143.779 22.4245 143.927 21.7318 144.222 21.1385C144.517 20.5452 144.931 20.0845 145.465 19.7564C145.998 19.4283 146.623 19.2642 147.339 19.2642C148.055 19.2642 148.68 19.4283 149.213 19.7564C149.747 20.0845 150.161 20.5452 150.456 21.1385C150.751 21.7318 150.899 22.4245 150.899 23.2166C150.899 24.0054 150.751 24.6948 150.456 25.2848C150.161 25.8748 149.747 26.3338 149.213 26.6619C148.68 26.9901 148.055 27.1541 147.339 27.1541ZM147.344 25.9062C147.808 25.9062 148.192 25.7836 148.497 25.5384C148.802 25.2931 149.028 24.9666 149.173 24.5589C149.323 24.1513 149.397 23.7022 149.397 23.2116C149.397 22.7244 149.323 22.277 149.173 21.8693C149.028 21.4583 148.802 21.1286 148.497 20.88C148.192 20.6314 147.808 20.5071 147.344 20.5071C146.877 20.5071 146.489 20.6314 146.181 20.88C145.876 21.1286 145.649 21.4583 145.499 21.8693C145.354 22.277 145.281 22.7244 145.281 23.2116C145.281 23.7022 145.354 24.1513 145.499 24.5589C145.649 24.9666 145.876 25.2931 146.181 25.5384C146.489 25.7836 146.877 25.9062 147.344 25.9062ZM156.192 19.3636V20.5568H151.877V19.3636H156.192ZM153.06 27V18.4787C153.06 18.0014 153.164 17.6053 153.373 17.2905C153.582 16.9723 153.859 16.7353 154.203 16.5795C154.548 16.4205 154.923 16.3409 155.327 16.3409C155.625 16.3409 155.881 16.3658 156.093 16.4155C156.305 16.4619 156.462 16.505 156.565 16.5447L156.217 17.7479C156.147 17.728 156.058 17.7048 155.949 17.6783C155.839 17.6484 155.707 17.6335 155.551 17.6335C155.19 17.6335 154.931 17.723 154.775 17.902C154.623 18.081 154.547 18.3395 154.547 18.6776V27H153.06ZM161.36 19.3636V20.5568H157.045V19.3636H161.36ZM158.228 27V18.4787C158.228 18.0014 158.332 17.6053 158.541 17.2905C158.75 16.9723 159.027 16.7353 159.371 16.5795C159.716 16.4205 160.091 16.3409 160.495 16.3409C160.793 16.3409 161.049 16.3658 161.261 16.4155C161.473 16.4619 161.63 16.505 161.733 16.5447L161.385 17.7479C161.315 17.728 161.226 17.7048 161.116 17.6783C161.007 17.6484 160.875 17.6335 160.719 17.6335C160.357 17.6335 160.099 17.723 159.943 17.902C159.791 18.081 159.714 18.3395 159.714 18.6776V27H158.228Z" fill="#0F172B"/>
<path d="M27.1371 80V53.8182H37.1598C39.0518 53.8182 40.6243 54.1165 41.8771 54.7131C43.1385 55.3011 44.0803 56.1065 44.7024 57.1293C45.3331 58.152 45.6484 59.3111 45.6484 60.6065C45.6484 61.6719 45.4439 62.5838 45.0348 63.3423C44.6257 64.0923 44.076 64.7017 43.3857 65.1705C42.6953 65.6392 41.924 65.9759 41.0717 66.1804V66.4361C42.0007 66.4872 42.8913 66.7727 43.7436 67.2926C44.6044 67.804 45.3075 68.5284 45.853 69.4659C46.3984 70.4034 46.6712 71.5369 46.6712 72.8665C46.6712 74.2216 46.343 75.4403 45.6868 76.5227C45.0305 77.5966 44.0419 78.4446 42.7209 79.0668C41.3999 79.6889 39.7379 80 37.7351 80H27.1371ZM31.88 76.0369H36.9808C38.7024 76.0369 39.9425 75.7088 40.701 75.0526C41.468 74.3878 41.8516 73.5355 41.8516 72.4957C41.8516 71.7202 41.6598 71.0213 41.2763 70.3991C40.8928 69.7685 40.3473 69.2741 39.6399 68.9162C38.9325 68.5497 38.0888 68.3665 37.1087 68.3665H31.88V76.0369ZM31.88 64.9531H36.5717C37.3899 64.9531 38.1271 64.804 38.7834 64.5057C39.4396 64.1989 39.9553 63.7685 40.3303 63.2145C40.7138 62.652 40.9055 61.9872 40.9055 61.2202C40.9055 60.206 40.5476 59.3707 39.8317 58.7145C39.1243 58.0582 38.0717 57.7301 36.674 57.7301H31.88V64.9531ZM55.2205 53.8182V80H50.5927V53.8182H55.2205ZM65.63 80.3963C64.3857 80.3963 63.2649 80.1747 62.2678 79.7315C61.2791 79.2798 60.495 78.6151 59.9155 77.7372C59.3445 76.8594 59.0589 75.777 59.0589 74.4901C59.0589 73.3821 59.2635 72.4659 59.6726 71.7415C60.0817 71.017 60.6399 70.4375 61.3473 70.0028C62.0547 69.5682 62.8516 69.2401 63.7379 69.0185C64.6328 68.7884 65.5575 68.6222 66.5121 68.5199C67.6626 68.4006 68.5959 68.294 69.3118 68.2003C70.0277 68.098 70.5476 67.9446 70.8714 67.7401C71.2038 67.527 71.37 67.1989 71.37 66.7557V66.679C71.37 65.7159 71.0845 64.9702 70.5135 64.4418C69.9425 63.9134 69.12 63.6491 68.0462 63.6491C66.9126 63.6491 66.0135 63.8963 65.3487 64.3906C64.6925 64.8849 64.2493 65.4687 64.0192 66.142L59.6982 65.5284C60.0391 64.3352 60.6016 63.3381 61.3857 62.5369C62.1697 61.7273 63.1286 61.1222 64.2621 60.7216C65.3956 60.3125 66.6484 60.108 68.0206 60.108C68.9666 60.108 69.9084 60.2188 70.8459 60.4403C71.7834 60.6619 72.6399 61.0284 73.4155 61.5398C74.1911 62.0426 74.8132 62.7287 75.282 63.598C75.7592 64.4673 75.9979 65.554 75.9979 66.858V80H71.549V77.3026H71.3956C71.1143 77.848 70.718 78.3594 70.2067 78.8366C69.7038 79.3054 69.0689 79.6847 68.3018 79.9744C67.5433 80.2557 66.6527 80.3963 65.63 80.3963ZM66.8317 76.9957C67.7607 76.9957 68.5661 76.8125 69.2479 76.446C69.9297 76.071 70.4538 75.5767 70.8203 74.9631C71.1953 74.3494 71.3828 73.6804 71.3828 72.956V70.642C71.2379 70.7614 70.9908 70.8722 70.6413 70.9744C70.3004 71.0767 69.9169 71.1662 69.4908 71.2429C69.0646 71.3196 68.6428 71.3878 68.2251 71.4474C67.8075 71.5071 67.4453 71.5582 67.1385 71.6009C66.4482 71.6946 65.8303 71.848 65.2848 72.0611C64.7393 72.2741 64.3089 72.5724 63.9936 72.956C63.6783 73.331 63.5206 73.8168 63.5206 74.4134C63.5206 75.2656 63.8317 75.9091 64.4538 76.3438C65.076 76.7784 65.8686 76.9957 66.8317 76.9957ZM89.2166 80.3835C87.2564 80.3835 85.5732 79.9531 84.1669 79.0923C82.7692 78.2315 81.6911 77.0426 80.9325 75.5256C80.1825 74 79.8075 72.2443 79.8075 70.2585C79.8075 68.2642 80.1911 66.5043 80.9581 64.9787C81.7251 63.4446 82.8075 62.2514 84.2053 61.3991C85.6115 60.5384 87.2734 60.108 89.1911 60.108C90.7848 60.108 92.1953 60.402 93.4226 60.9901C94.6584 61.5696 95.6428 62.392 96.3757 63.4574C97.1087 64.5142 97.5263 65.75 97.6286 67.1648H93.2053C93.0263 66.2187 92.6001 65.4304 91.9268 64.7997C91.2621 64.1605 90.3714 63.8409 89.255 63.8409C88.3089 63.8409 87.478 64.0966 86.7621 64.608C86.0462 65.1108 85.4879 65.8352 85.0874 66.7812C84.6953 67.7273 84.4993 68.8608 84.4993 70.1818C84.4993 71.5199 84.6953 72.6705 85.0874 73.6335C85.4794 74.5881 86.0291 75.3253 86.7365 75.8452C87.4524 76.3565 88.2919 76.6122 89.255 76.6122C89.9368 76.6122 90.5462 76.4844 91.0831 76.2287C91.6286 75.9645 92.0845 75.5852 92.451 75.0909C92.8175 74.5966 93.0689 73.9957 93.2053 73.2884H97.6286C97.5178 74.6776 97.1087 75.9091 96.4013 76.983C95.6939 78.0483 94.7308 78.8835 93.5121 79.4886C92.2933 80.0852 90.8615 80.3835 89.2166 80.3835ZM105.647 73.8381L105.635 68.2514H106.376L113.433 60.3636H118.841L110.16 70.0284H109.201L105.647 73.8381ZM101.429 80V53.8182H106.056V80H101.429ZM113.752 80L107.36 71.0639L110.48 67.804L119.288 80H113.752ZM131.059 80V53.8182H147.832V57.794H135.802V64.902H146.681V68.8778H135.802V80H131.059ZM151.667 80V60.3636H156.154V63.6364H156.359C156.717 62.5028 157.33 61.6293 158.2 61.0156C159.077 60.3935 160.079 60.0824 161.204 60.0824C161.46 60.0824 161.745 60.0952 162.06 60.1207C162.384 60.1378 162.653 60.1676 162.866 60.2102V64.4673C162.67 64.3991 162.359 64.3395 161.933 64.2884C161.515 64.2287 161.11 64.1989 160.718 64.1989C159.874 64.1989 159.116 64.3821 158.442 64.7486C157.778 65.1065 157.254 65.6051 156.87 66.2443C156.487 66.8835 156.295 67.6207 156.295 68.456V80H151.667ZM165.94 80V60.3636H170.568V80H165.94ZM168.267 57.5767C167.534 57.5767 166.903 57.3338 166.375 56.848C165.847 56.3537 165.582 55.7614 165.582 55.071C165.582 54.3722 165.847 53.7798 166.375 53.294C166.903 52.7997 167.534 52.5526 168.267 52.5526C169.009 52.5526 169.639 52.7997 170.159 53.294C170.688 53.7798 170.952 54.3722 170.952 55.071C170.952 55.7614 170.688 56.3537 170.159 56.848C169.639 57.3338 169.009 57.5767 168.267 57.5767ZM182.614 80.3452C181.071 80.3452 179.691 79.9489 178.472 79.1562C177.253 78.3636 176.29 77.2131 175.583 75.7045C174.875 74.196 174.522 72.3636 174.522 70.2074C174.522 68.0256 174.88 66.1847 175.596 64.6847C176.32 63.1761 177.296 62.0384 178.523 61.2713C179.75 60.4957 181.118 60.108 182.627 60.108C183.777 60.108 184.723 60.304 185.465 60.696C186.206 61.0795 186.794 61.544 187.229 62.0895C187.664 62.6264 188 63.1335 188.239 63.6108H188.431V53.8182H193.071V80H188.52V76.9062H188.239C188 77.3835 187.655 77.8906 187.203 78.4276C186.752 78.956 186.155 79.4077 185.414 79.7827C184.672 80.1577 183.739 80.3452 182.614 80.3452ZM183.905 76.5483C184.885 76.5483 185.721 76.2841 186.411 75.7557C187.101 75.2187 187.625 74.473 187.983 73.5185C188.341 72.5639 188.52 71.4517 188.52 70.1818C188.52 68.9119 188.341 67.8082 187.983 66.8707C187.634 65.9332 187.114 65.2045 186.424 64.6847C185.742 64.1648 184.902 63.9048 183.905 63.9048C182.874 63.9048 182.013 64.1733 181.323 64.7102C180.632 65.2472 180.113 65.9886 179.763 66.9347C179.414 67.8807 179.239 68.9631 179.239 70.1818C179.239 71.4091 179.414 72.5043 179.763 73.4673C180.121 74.4219 180.645 75.1761 181.336 75.7301C182.034 76.2756 182.891 76.5483 183.905 76.5483ZM203.653 80.3963C202.409 80.3963 201.288 80.1747 200.291 79.7315C199.303 79.2798 198.518 78.6151 197.939 77.7372C197.368 76.8594 197.082 75.777 197.082 74.4901C197.082 73.3821 197.287 72.4659 197.696 71.7415C198.105 71.017 198.663 70.4375 199.371 70.0028C200.078 69.5682 200.875 69.2401 201.761 69.0185C202.656 68.7884 203.581 68.6222 204.536 68.5199C205.686 68.4006 206.619 68.294 207.335 68.2003C208.051 68.098 208.571 67.9446 208.895 67.7401C209.227 67.527 209.393 67.1989 209.393 66.7557V66.679C209.393 65.7159 209.108 64.9702 208.537 64.4418C207.966 63.9134 207.143 63.6491 206.07 63.6491C204.936 63.6491 204.037 63.8963 203.372 64.3906C202.716 64.8849 202.273 65.4687 202.043 66.142L197.722 65.5284C198.063 64.3352 198.625 63.3381 199.409 62.5369C200.193 61.7273 201.152 61.1222 202.286 60.7216C203.419 60.3125 204.672 60.108 206.044 60.108C206.99 60.108 207.932 60.2188 208.869 60.4403C209.807 60.6619 210.663 61.0284 211.439 61.5398C212.214 62.0426 212.837 62.7287 213.305 63.598C213.783 64.4673 214.021 65.554 214.021 66.858V80H209.572V77.3026H209.419C209.138 77.848 208.741 78.3594 208.23 78.8366C207.727 79.3054 207.092 79.6847 206.325 79.9744C205.567 80.2557 204.676 80.3963 203.653 80.3963ZM204.855 76.9957C205.784 76.9957 206.589 76.8125 207.271 76.446C207.953 76.071 208.477 75.5767 208.844 74.9631C209.219 74.3494 209.406 73.6804 209.406 72.956V70.642C209.261 70.7614 209.014 70.8722 208.665 70.9744C208.324 71.0767 207.94 71.1662 207.514 71.2429C207.088 71.3196 206.666 71.3878 206.249 71.4474C205.831 71.5071 205.469 71.5582 205.162 71.6009C204.472 71.6946 203.854 71.848 203.308 72.0611C202.763 72.2741 202.332 72.5724 202.017 72.956C201.702 73.331 201.544 73.8168 201.544 74.4134C201.544 75.2656 201.855 75.9091 202.477 76.3438C203.099 76.7784 203.892 76.9957 204.855 76.9957ZM220.848 87.3636C220.217 87.3636 219.634 87.3125 219.097 87.2102C218.568 87.1165 218.146 87.0057 217.831 86.8778L218.905 83.2727C219.578 83.4688 220.179 83.5625 220.707 83.554C221.236 83.5455 221.7 83.3793 222.101 83.0554C222.51 82.7401 222.855 82.2116 223.136 81.4702L223.533 80.4091L216.412 60.3636H221.321L225.847 75.1932H226.051L230.589 60.3636H235.511L227.649 82.3778C227.283 83.4176 226.797 84.3082 226.192 85.0497C225.587 85.7997 224.845 86.3707 223.967 86.7628C223.098 87.1634 222.058 87.3636 220.848 87.3636ZM244.377 53.8182L243.955 72.304H239.839L239.43 53.8182H244.377ZM241.897 80.2812C241.121 80.2812 240.457 80.0085 239.903 79.4631C239.357 78.9176 239.085 78.2528 239.085 77.4688C239.085 76.7017 239.357 76.0455 239.903 75.5C240.457 74.9545 241.121 74.6818 241.897 74.6818C242.656 74.6818 243.312 74.9545 243.866 75.5C244.428 76.0455 244.71 76.7017 244.71 77.4688C244.71 77.9886 244.577 78.4616 244.313 78.8878C244.058 79.3139 243.717 79.6548 243.29 79.9105C242.873 80.1577 242.408 80.2812 241.897 80.2812Z" fill="#0F172B"/>
<path d="M22.1342 107.875V106.364H31.1399V107.875H27.5092V118H25.7592V107.875H22.1342ZM34.6925 112.818V118H32.9936V106.364H34.6697V110.693H34.7777C34.9822 110.223 35.2947 109.85 35.7152 109.574C36.1357 109.297 36.6849 109.159 37.3629 109.159C37.9614 109.159 38.4841 109.282 38.9311 109.528C39.3819 109.775 39.7304 110.142 39.9766 110.631C40.2266 111.116 40.3516 111.722 40.3516 112.449V118H38.6527V112.653C38.6527 112.013 38.4879 111.517 38.1584 111.165C37.8288 110.809 37.3705 110.631 36.7834 110.631C36.3819 110.631 36.022 110.716 35.7038 110.886C35.3894 111.057 35.1413 111.307 34.9595 111.636C34.7815 111.962 34.6925 112.356 34.6925 112.818ZM42.6186 118V109.273H44.3175V118H42.6186ZM43.4766 107.926C43.1811 107.926 42.9273 107.828 42.7152 107.631C42.5069 107.43 42.4027 107.191 42.4027 106.915C42.4027 106.634 42.5069 106.396 42.7152 106.199C42.9273 105.998 43.1811 105.898 43.4766 105.898C43.772 105.898 44.0239 105.998 44.2322 106.199C44.4444 106.396 44.5504 106.634 44.5504 106.915C44.5504 107.191 44.4444 107.43 44.2322 107.631C44.0239 107.828 43.772 107.926 43.4766 107.926ZM53.1428 111.403L51.603 111.676C51.5386 111.479 51.4363 111.292 51.2962 111.114C51.1598 110.936 50.9742 110.79 50.7393 110.676C50.5045 110.562 50.2109 110.506 49.8587 110.506C49.3776 110.506 48.9761 110.614 48.6541 110.83C48.3321 111.042 48.1712 111.316 48.1712 111.653C48.1712 111.945 48.2791 112.18 48.495 112.358C48.7109 112.536 49.0594 112.682 49.5405 112.795L50.9268 113.114C51.7299 113.299 52.3284 113.585 52.7223 113.972C53.1162 114.358 53.3132 114.86 53.3132 115.477C53.3132 116 53.1617 116.466 52.8587 116.875C52.5594 117.28 52.1409 117.598 51.603 117.83C51.0689 118.061 50.4496 118.176 49.745 118.176C48.7678 118.176 47.9704 117.968 47.353 117.551C46.7356 117.131 46.3568 116.534 46.2166 115.761L47.8587 115.511C47.9609 115.939 48.1712 116.263 48.4893 116.483C48.8075 116.699 49.2223 116.807 49.7337 116.807C50.2905 116.807 50.7356 116.691 51.0689 116.46C51.4022 116.225 51.5689 115.939 51.5689 115.602C51.5689 115.33 51.4666 115.1 51.2621 114.915C51.0613 114.729 50.7526 114.589 50.3359 114.494L48.8587 114.17C48.0443 113.985 47.442 113.689 47.0518 113.284C46.6655 112.879 46.4723 112.366 46.4723 111.744C46.4723 111.229 46.6162 110.778 46.9041 110.392C47.192 110.006 47.5897 109.705 48.0973 109.489C48.6049 109.269 49.1863 109.159 49.8416 109.159C50.7848 109.159 51.5272 109.364 52.0689 109.773C52.6106 110.178 52.9685 110.722 53.1428 111.403ZM61.1143 112.818V118H59.4155V106.364H61.0916V110.693H61.1996C61.4041 110.223 61.7166 109.85 62.1371 109.574C62.5575 109.297 63.1068 109.159 63.7848 109.159C64.3833 109.159 64.906 109.282 65.353 109.528C65.8037 109.775 66.1522 110.142 66.3984 110.631C66.6484 111.116 66.7734 111.722 66.7734 112.449V118H65.0746V112.653C65.0746 112.013 64.9098 111.517 64.5803 111.165C64.2507 110.809 63.7924 110.631 63.2053 110.631C62.8037 110.631 62.4439 110.716 62.1257 110.886C61.8113 111.057 61.5632 111.307 61.3814 111.636C61.2034 111.962 61.1143 112.356 61.1143 112.818ZM72.7166 118.176C71.8984 118.176 71.1844 117.989 70.5746 117.614C69.9647 117.239 69.4912 116.714 69.1541 116.04C68.817 115.366 68.6484 114.578 68.6484 113.676C68.6484 112.771 68.817 111.979 69.1541 111.301C69.4912 110.623 69.9647 110.097 70.5746 109.722C71.1844 109.347 71.8984 109.159 72.7166 109.159C73.5348 109.159 74.2488 109.347 74.8587 109.722C75.4685 110.097 75.942 110.623 76.2791 111.301C76.6162 111.979 76.7848 112.771 76.7848 113.676C76.7848 114.578 76.6162 115.366 76.2791 116.04C75.942 116.714 75.4685 117.239 74.8587 117.614C74.2488 117.989 73.5348 118.176 72.7166 118.176ZM72.7223 116.75C73.2526 116.75 73.692 116.61 74.0405 116.33C74.389 116.049 74.6465 115.676 74.8132 115.21C74.9837 114.744 75.0689 114.231 75.0689 113.67C75.0689 113.114 74.9837 112.602 74.8132 112.136C74.6465 111.667 74.389 111.29 74.0405 111.006C73.692 110.722 73.2526 110.58 72.7223 110.58C72.1882 110.58 71.745 110.722 71.3928 111.006C71.0443 111.29 70.7848 111.667 70.6143 112.136C70.4477 112.602 70.3643 113.114 70.3643 113.67C70.3643 114.231 70.4477 114.744 70.6143 115.21C70.7848 115.676 71.0443 116.049 71.3928 116.33C71.745 116.61 72.1882 116.75 72.7223 116.75ZM80.38 106.364V118H78.6811V106.364H80.38ZM82.6655 118V109.273H84.3643V118H82.6655ZM83.5234 107.926C83.228 107.926 82.9742 107.828 82.7621 107.631C82.5537 107.43 82.4496 107.191 82.4496 106.915C82.4496 106.634 82.5537 106.396 82.7621 106.199C82.9742 105.998 83.228 105.898 83.5234 105.898C83.8189 105.898 84.0708 105.998 84.2791 106.199C84.4912 106.396 84.5973 106.634 84.5973 106.915C84.5973 107.191 84.4912 107.43 84.2791 107.631C84.0708 107.828 83.8189 107.926 83.5234 107.926ZM89.9169 118.17C89.2124 118.17 88.5836 117.991 88.0305 117.631C87.4813 117.267 87.0495 116.75 86.7351 116.08C86.4245 115.405 86.2692 114.597 86.2692 113.653C86.2692 112.71 86.4264 111.903 86.7408 111.233C87.0589 110.562 87.4946 110.049 88.0476 109.693C88.6006 109.337 89.2275 109.159 89.9283 109.159C90.4699 109.159 90.9055 109.25 91.2351 109.432C91.5684 109.61 91.826 109.818 92.0078 110.057C92.1934 110.295 92.3374 110.506 92.4396 110.688H92.5419V106.364H94.2408V118H92.5817V116.642H92.4396C92.3374 116.828 92.1896 117.04 91.9964 117.278C91.8071 117.517 91.5457 117.725 91.2124 117.903C90.879 118.081 90.4472 118.17 89.9169 118.17ZM90.2919 116.722C90.7805 116.722 91.1934 116.593 91.5305 116.335C91.8714 116.074 92.129 115.712 92.3033 115.25C92.4813 114.788 92.5703 114.25 92.5703 113.636C92.5703 113.03 92.4832 112.5 92.3089 112.045C92.1347 111.591 91.879 111.237 91.5419 110.983C91.2048 110.729 90.7881 110.602 90.2919 110.602C89.7805 110.602 89.3544 110.735 89.0135 111C88.6726 111.265 88.415 111.627 88.2408 112.085C88.0703 112.544 87.9851 113.061 87.9851 113.636C87.9851 114.22 88.0722 114.744 88.2464 115.21C88.4207 115.676 88.6783 116.045 89.0192 116.318C89.3639 116.587 89.7881 116.722 90.2919 116.722ZM99.2053 118.193C98.6522 118.193 98.1522 118.091 97.7053 117.886C97.2583 117.678 96.9041 117.377 96.6428 116.983C96.3852 116.589 96.2564 116.106 96.2564 115.534C96.2564 115.042 96.3511 114.636 96.5405 114.318C96.7299 114 96.9856 113.748 97.3075 113.562C97.6295 113.377 97.9893 113.237 98.3871 113.142C98.7848 113.047 99.1901 112.975 99.603 112.926C100.126 112.866 100.55 112.816 100.876 112.778C101.201 112.737 101.438 112.67 101.586 112.58C101.734 112.489 101.808 112.341 101.808 112.136V112.097C101.808 111.6 101.667 111.216 101.387 110.943C101.111 110.67 100.698 110.534 100.148 110.534C99.5765 110.534 99.1257 110.661 98.7962 110.915C98.4704 111.165 98.245 111.443 98.12 111.75L96.5234 111.386C96.7128 110.856 96.9893 110.428 97.353 110.102C97.7204 109.773 98.1428 109.534 98.62 109.386C99.0973 109.235 99.5992 109.159 100.126 109.159C100.474 109.159 100.844 109.201 101.234 109.284C101.628 109.364 101.995 109.511 102.336 109.727C102.681 109.943 102.963 110.252 103.183 110.653C103.402 111.051 103.512 111.568 103.512 112.205V118H101.853V116.807H101.785C101.675 117.027 101.51 117.242 101.29 117.455C101.071 117.667 100.789 117.843 100.444 117.983C100.099 118.123 99.6863 118.193 99.2053 118.193ZM99.5746 116.83C100.044 116.83 100.446 116.737 100.779 116.551C101.116 116.366 101.372 116.123 101.546 115.824C101.724 115.521 101.813 115.197 101.813 114.852V113.727C101.753 113.788 101.635 113.845 101.461 113.898C101.29 113.947 101.095 113.991 100.876 114.028C100.656 114.062 100.442 114.095 100.234 114.125C100.025 114.152 99.8511 114.174 99.7109 114.193C99.3814 114.235 99.0803 114.305 98.8075 114.403C98.5386 114.502 98.3227 114.644 98.1598 114.83C98.0007 115.011 97.9212 115.254 97.9212 115.557C97.9212 115.977 98.0765 116.295 98.3871 116.511C98.6977 116.723 99.0935 116.83 99.5746 116.83ZM106.536 121.273C106.282 121.273 106.051 121.252 105.843 121.21C105.635 121.172 105.479 121.131 105.377 121.085L105.786 119.693C106.097 119.777 106.373 119.813 106.616 119.801C106.858 119.79 107.072 119.699 107.258 119.528C107.447 119.358 107.614 119.08 107.758 118.693L107.968 118.114L104.775 109.273H106.593L108.803 116.045H108.894L111.104 109.273H112.928L109.332 119.165C109.165 119.619 108.953 120.004 108.695 120.318C108.438 120.636 108.131 120.875 107.775 121.034C107.419 121.193 107.006 121.273 106.536 121.273ZM125.299 111.403L123.759 111.676C123.695 111.479 123.593 111.292 123.452 111.114C123.316 110.936 123.13 110.79 122.896 110.676C122.661 110.562 122.367 110.506 122.015 110.506C121.534 110.506 121.132 110.614 120.81 110.83C120.488 111.042 120.327 111.316 120.327 111.653C120.327 111.945 120.435 112.18 120.651 112.358C120.867 112.536 121.216 112.682 121.697 112.795L123.083 113.114C123.886 113.299 124.485 113.585 124.879 113.972C125.272 114.358 125.469 114.86 125.469 115.477C125.469 116 125.318 116.466 125.015 116.875C124.716 117.28 124.297 117.598 123.759 117.83C123.225 118.061 122.606 118.176 121.901 118.176C120.924 118.176 120.127 117.968 119.509 117.551C118.892 117.131 118.513 116.534 118.373 115.761L120.015 115.511C120.117 115.939 120.327 116.263 120.646 116.483C120.964 116.699 121.379 116.807 121.89 116.807C122.447 116.807 122.892 116.691 123.225 116.46C123.558 116.225 123.725 115.939 123.725 115.602C123.725 115.33 123.623 115.1 123.418 114.915C123.218 114.729 122.909 114.589 122.492 114.494L121.015 114.17C120.201 113.985 119.598 113.689 119.208 113.284C118.822 112.879 118.629 112.366 118.629 111.744C118.629 111.229 118.772 110.778 119.06 110.392C119.348 110.006 119.746 109.705 120.254 109.489C120.761 109.269 121.343 109.159 121.998 109.159C122.941 109.159 123.683 109.364 124.225 109.773C124.767 110.178 125.125 110.722 125.299 111.403ZM131.099 118.176C130.239 118.176 129.498 117.992 128.877 117.625C128.26 117.254 127.782 116.733 127.445 116.062C127.112 115.388 126.945 114.598 126.945 113.693C126.945 112.799 127.112 112.011 127.445 111.33C127.782 110.648 128.252 110.116 128.854 109.733C129.46 109.35 130.169 109.159 130.979 109.159C131.472 109.159 131.949 109.241 132.411 109.403C132.873 109.566 133.288 109.822 133.656 110.17C134.023 110.519 134.313 110.972 134.525 111.528C134.737 112.081 134.843 112.754 134.843 113.545V114.148H127.906V112.875H133.178C133.178 112.428 133.087 112.032 132.906 111.688C132.724 111.339 132.468 111.064 132.138 110.864C131.813 110.663 131.43 110.562 130.991 110.562C130.513 110.562 130.097 110.68 129.741 110.915C129.388 111.146 129.116 111.449 128.923 111.824C128.733 112.195 128.638 112.598 128.638 113.034V114.028C128.638 114.612 128.741 115.108 128.945 115.517C129.154 115.926 129.443 116.239 129.815 116.455C130.186 116.667 130.62 116.773 131.116 116.773C131.438 116.773 131.731 116.727 131.996 116.636C132.262 116.542 132.491 116.402 132.684 116.216C132.877 116.03 133.025 115.801 133.127 115.528L134.735 115.818C134.606 116.292 134.375 116.706 134.042 117.062C133.712 117.415 133.298 117.689 132.798 117.886C132.301 118.08 131.735 118.176 131.099 118.176ZM139.268 118.193C138.715 118.193 138.215 118.091 137.768 117.886C137.321 117.678 136.967 117.377 136.705 116.983C136.448 116.589 136.319 116.106 136.319 115.534C136.319 115.042 136.414 114.636 136.603 114.318C136.792 114 137.048 113.748 137.37 113.562C137.692 113.377 138.052 113.237 138.45 113.142C138.847 113.047 139.253 112.975 139.665 112.926C140.188 112.866 140.612 112.816 140.938 112.778C141.264 112.737 141.501 112.67 141.648 112.58C141.796 112.489 141.87 112.341 141.87 112.136V112.097C141.87 111.6 141.73 111.216 141.45 110.943C141.173 110.67 140.76 110.534 140.211 110.534C139.639 110.534 139.188 110.661 138.859 110.915C138.533 111.165 138.308 111.443 138.183 111.75L136.586 111.386C136.775 110.856 137.052 110.428 137.415 110.102C137.783 109.773 138.205 109.534 138.683 109.386C139.16 109.235 139.662 109.159 140.188 109.159C140.537 109.159 140.906 109.201 141.296 109.284C141.69 109.364 142.058 109.511 142.398 109.727C142.743 109.943 143.025 110.252 143.245 110.653C143.465 111.051 143.575 111.568 143.575 112.205V118H141.915V116.807H141.847C141.737 117.027 141.573 117.242 141.353 117.455C141.133 117.667 140.851 117.843 140.506 117.983C140.162 118.123 139.749 118.193 139.268 118.193ZM139.637 116.83C140.107 116.83 140.508 116.737 140.842 116.551C141.179 116.366 141.434 116.123 141.609 115.824C141.787 115.521 141.876 115.197 141.876 114.852V113.727C141.815 113.788 141.698 113.845 141.523 113.898C141.353 113.947 141.158 113.991 140.938 114.028C140.719 114.062 140.504 114.095 140.296 114.125C140.088 114.152 139.914 114.174 139.773 114.193C139.444 114.235 139.143 114.305 138.87 114.403C138.601 114.502 138.385 114.644 138.222 114.83C138.063 115.011 137.984 115.254 137.984 115.557C137.984 115.977 138.139 116.295 138.45 116.511C138.76 116.723 139.156 116.83 139.637 116.83ZM152.377 111.403L150.837 111.676C150.773 111.479 150.671 111.292 150.531 111.114C150.394 110.936 150.209 110.79 149.974 110.676C149.739 110.562 149.445 110.506 149.093 110.506C148.612 110.506 148.21 110.614 147.888 110.83C147.567 111.042 147.406 111.316 147.406 111.653C147.406 111.945 147.513 112.18 147.729 112.358C147.945 112.536 148.294 112.682 148.775 112.795L150.161 113.114C150.964 113.299 151.563 113.585 151.957 113.972C152.351 114.358 152.548 114.86 152.548 115.477C152.548 116 152.396 116.466 152.093 116.875C151.794 117.28 151.375 117.598 150.837 117.83C150.303 118.061 149.684 118.176 148.979 118.176C148.002 118.176 147.205 117.968 146.587 117.551C145.97 117.131 145.591 116.534 145.451 115.761L147.093 115.511C147.195 115.939 147.406 116.263 147.724 116.483C148.042 116.699 148.457 116.807 148.968 116.807C149.525 116.807 149.97 116.691 150.303 116.46C150.637 116.225 150.803 115.939 150.803 115.602C150.803 115.33 150.701 115.1 150.496 114.915C150.296 114.729 149.987 114.589 149.57 114.494L148.093 114.17C147.279 113.985 146.676 113.689 146.286 113.284C145.9 112.879 145.707 112.366 145.707 111.744C145.707 111.229 145.851 110.778 146.138 110.392C146.426 110.006 146.824 109.705 147.332 109.489C147.839 109.269 148.421 109.159 149.076 109.159C150.019 109.159 150.762 109.364 151.303 109.773C151.845 110.178 152.203 110.722 152.377 111.403ZM158.092 118.176C157.273 118.176 156.559 117.989 155.95 117.614C155.34 117.239 154.866 116.714 154.529 116.04C154.192 115.366 154.023 114.578 154.023 113.676C154.023 112.771 154.192 111.979 154.529 111.301C154.866 110.623 155.34 110.097 155.95 109.722C156.559 109.347 157.273 109.159 158.092 109.159C158.91 109.159 159.624 109.347 160.234 109.722C160.844 110.097 161.317 110.623 161.654 111.301C161.991 111.979 162.16 112.771 162.16 113.676C162.16 114.578 161.991 115.366 161.654 116.04C161.317 116.714 160.844 117.239 160.234 117.614C159.624 117.989 158.91 118.176 158.092 118.176ZM158.097 116.75C158.628 116.75 159.067 116.61 159.415 116.33C159.764 116.049 160.022 115.676 160.188 115.21C160.359 114.744 160.444 114.231 160.444 113.67C160.444 113.114 160.359 112.602 160.188 112.136C160.022 111.667 159.764 111.29 159.415 111.006C159.067 110.722 158.628 110.58 158.097 110.58C157.563 110.58 157.12 110.722 156.768 111.006C156.419 111.29 156.16 111.667 155.989 112.136C155.823 112.602 155.739 113.114 155.739 113.67C155.739 114.231 155.823 114.744 155.989 115.21C156.16 115.676 156.419 116.049 156.768 116.33C157.12 116.61 157.563 116.75 158.097 116.75ZM165.755 112.818V118H164.056V109.273H165.687V110.693H165.795C165.996 110.231 166.31 109.86 166.738 109.58C167.17 109.299 167.713 109.159 168.369 109.159C168.963 109.159 169.484 109.284 169.931 109.534C170.378 109.78 170.725 110.148 170.971 110.636C171.217 111.125 171.34 111.729 171.34 112.449V118H169.641V112.653C169.641 112.021 169.477 111.527 169.147 111.17C168.817 110.811 168.365 110.631 167.789 110.631C167.395 110.631 167.045 110.716 166.738 110.886C166.435 111.057 166.194 111.307 166.016 111.636C165.842 111.962 165.755 112.356 165.755 112.818ZM181.529 118.176C180.711 118.176 179.997 117.989 179.387 117.614C178.777 117.239 178.304 116.714 177.967 116.04C177.629 115.366 177.461 114.578 177.461 113.676C177.461 112.771 177.629 111.979 177.967 111.301C178.304 110.623 178.777 110.097 179.387 109.722C179.997 109.347 180.711 109.159 181.529 109.159C182.347 109.159 183.061 109.347 183.671 109.722C184.281 110.097 184.754 110.623 185.092 111.301C185.429 111.979 185.597 112.771 185.597 113.676C185.597 114.578 185.429 115.366 185.092 116.04C184.754 116.714 184.281 117.239 183.671 117.614C183.061 117.989 182.347 118.176 181.529 118.176ZM181.535 116.75C182.065 116.75 182.504 116.61 182.853 116.33C183.201 116.049 183.459 115.676 183.626 115.21C183.796 114.744 183.881 114.231 183.881 113.67C183.881 113.114 183.796 112.602 183.626 112.136C183.459 111.667 183.201 111.29 182.853 111.006C182.504 110.722 182.065 110.58 181.535 110.58C181.001 110.58 180.558 110.722 180.205 111.006C179.857 111.29 179.597 111.667 179.427 112.136C179.26 112.602 179.177 113.114 179.177 113.67C179.177 114.231 179.26 114.744 179.427 115.21C179.597 115.676 179.857 116.049 180.205 116.33C180.558 116.61 181.001 116.75 181.535 116.75ZM189.192 112.818V118H187.494V109.273H189.124V110.693H189.232C189.433 110.231 189.747 109.86 190.175 109.58C190.607 109.299 191.151 109.159 191.806 109.159C192.401 109.159 192.922 109.284 193.369 109.534C193.816 109.78 194.162 110.148 194.408 110.636C194.655 111.125 194.778 111.729 194.778 112.449V118H193.079V112.653C193.079 112.021 192.914 111.527 192.585 111.17C192.255 110.811 191.802 110.631 191.227 110.631C190.833 110.631 190.482 110.716 190.175 110.886C189.872 111.057 189.632 111.307 189.454 111.636C189.28 111.962 189.192 112.356 189.192 112.818ZM198.755 106.364V118H197.056V106.364H198.755ZM202.114 121.273C201.861 121.273 201.629 121.252 201.421 121.21C201.213 121.172 201.058 121.131 200.955 121.085L201.364 119.693C201.675 119.777 201.951 119.813 202.194 119.801C202.436 119.79 202.65 119.699 202.836 119.528C203.025 119.358 203.192 119.08 203.336 118.693L203.546 118.114L200.353 109.273H202.171L204.381 116.045H204.472L206.683 109.273H208.506L204.91 119.165C204.743 119.619 204.531 120.004 204.273 120.318C204.016 120.636 203.709 120.875 203.353 121.034C202.997 121.193 202.584 121.273 202.114 121.273ZM211.766 116.409L211.681 117.028C211.624 117.483 211.528 117.956 211.391 118.449C211.259 118.945 211.121 119.405 210.977 119.83C210.836 120.254 210.721 120.591 210.63 120.841H209.425C209.475 120.606 209.543 120.288 209.63 119.886C209.717 119.489 209.802 119.044 209.886 118.551C209.969 118.059 210.031 117.557 210.073 117.045L210.13 116.409H211.766ZM222.031 118.159C221.318 118.159 220.678 118.023 220.11 117.75C219.546 117.473 219.095 117.095 218.758 116.614C218.421 116.133 218.241 115.583 218.218 114.966H219.923C219.964 115.466 220.186 115.877 220.587 116.199C220.989 116.521 221.47 116.682 222.031 116.682C222.478 116.682 222.873 116.58 223.218 116.375C223.567 116.167 223.839 115.881 224.036 115.517C224.237 115.153 224.337 114.739 224.337 114.273C224.337 113.799 224.235 113.377 224.031 113.006C223.826 112.634 223.544 112.343 223.184 112.131C222.828 111.919 222.419 111.811 221.957 111.807C221.604 111.807 221.25 111.867 220.894 111.989C220.538 112.11 220.25 112.269 220.031 112.466L218.423 112.227L219.076 106.364H225.474V107.869H220.536L220.167 111.125H220.235C220.462 110.905 220.763 110.722 221.138 110.574C221.517 110.426 221.923 110.352 222.354 110.352C223.063 110.352 223.693 110.521 224.246 110.858C224.803 111.195 225.241 111.655 225.559 112.239C225.881 112.818 226.04 113.485 226.036 114.239C226.04 114.992 225.87 115.665 225.525 116.256C225.184 116.847 224.71 117.312 224.104 117.653C223.502 117.991 222.811 118.159 222.031 118.159ZM232.163 118.193C231.265 118.189 230.498 117.953 229.862 117.483C229.225 117.013 228.738 116.33 228.401 115.432C228.064 114.534 227.896 113.453 227.896 112.188C227.896 110.926 228.064 109.848 228.401 108.955C228.742 108.061 229.231 107.379 229.867 106.909C230.507 106.439 231.272 106.205 232.163 106.205C233.053 106.205 233.816 106.441 234.452 106.915C235.089 107.384 235.576 108.066 235.913 108.96C236.254 109.85 236.424 110.926 236.424 112.188C236.424 113.456 236.255 114.54 235.918 115.438C235.581 116.331 235.094 117.015 234.458 117.489C233.822 117.958 233.057 118.193 232.163 118.193ZM232.163 116.676C232.951 116.676 233.566 116.292 234.009 115.523C234.456 114.754 234.68 113.642 234.68 112.188C234.68 111.222 234.577 110.405 234.373 109.739C234.172 109.068 233.882 108.561 233.504 108.216C233.129 107.867 232.682 107.693 232.163 107.693C231.379 107.693 230.763 108.08 230.316 108.852C229.869 109.625 229.644 110.737 229.64 112.188C229.64 113.157 229.74 113.977 229.941 114.648C230.146 115.314 230.435 115.82 230.81 116.165C231.185 116.506 231.636 116.676 232.163 116.676ZM244.513 115.818V115.205C244.513 114.765 244.604 114.364 244.786 114C244.972 113.633 245.241 113.339 245.593 113.119C245.949 112.896 246.379 112.784 246.883 112.784C247.398 112.784 247.83 112.894 248.178 113.114C248.527 113.333 248.79 113.627 248.968 113.994C249.15 114.362 249.241 114.765 249.241 115.205V115.818C249.241 116.258 249.15 116.661 248.968 117.028C248.786 117.392 248.519 117.686 248.167 117.909C247.818 118.129 247.39 118.239 246.883 118.239C246.371 118.239 245.94 118.129 245.587 117.909C245.235 117.686 244.968 117.392 244.786 117.028C244.604 116.661 244.513 116.258 244.513 115.818ZM245.837 115.205V115.818C245.837 116.144 245.915 116.439 246.07 116.705C246.226 116.97 246.496 117.102 246.883 117.102C247.265 117.102 247.532 116.97 247.684 116.705C247.835 116.439 247.911 116.144 247.911 115.818V115.205C247.911 114.879 247.837 114.583 247.69 114.318C247.546 114.053 247.277 113.92 246.883 113.92C246.504 113.92 246.235 114.053 246.076 114.318C245.917 114.583 245.837 114.879 245.837 115.205ZM238.661 109.159V108.545C238.661 108.106 238.752 107.703 238.934 107.335C239.12 106.968 239.388 106.674 239.741 106.455C240.097 106.235 240.527 106.125 241.031 106.125C241.546 106.125 241.978 106.235 242.326 106.455C242.674 106.674 242.938 106.968 243.116 107.335C243.294 107.703 243.383 108.106 243.383 108.545V109.159C243.383 109.598 243.292 110.002 243.11 110.369C242.932 110.733 242.667 111.027 242.315 111.25C241.966 111.47 241.538 111.58 241.031 111.58C240.515 111.58 240.082 111.47 239.729 111.25C239.381 111.027 239.116 110.733 238.934 110.369C238.752 110.002 238.661 109.598 238.661 109.159ZM239.991 108.545V109.159C239.991 109.485 240.067 109.78 240.218 110.045C240.373 110.311 240.644 110.443 241.031 110.443C241.409 110.443 241.674 110.311 241.826 110.045C241.981 109.78 242.059 109.485 242.059 109.159V108.545C242.059 108.22 241.985 107.924 241.837 107.659C241.69 107.394 241.421 107.261 241.031 107.261C240.652 107.261 240.383 107.394 240.224 107.659C240.068 107.924 239.991 108.22 239.991 108.545ZM239.201 118L247.201 106.364H248.559L240.559 118H239.201ZM19.0916 140.176C18.2734 140.176 17.5594 139.989 16.9496 139.614C16.3397 139.239 15.8662 138.714 15.5291 138.04C15.192 137.366 15.0234 136.578 15.0234 135.676C15.0234 134.771 15.192 133.979 15.5291 133.301C15.8662 132.623 16.3397 132.097 16.9496 131.722C17.5594 131.347 18.2734 131.159 19.0916 131.159C19.9098 131.159 20.6238 131.347 21.2337 131.722C21.8435 132.097 22.317 132.623 22.6541 133.301C22.9912 133.979 23.1598 134.771 23.1598 135.676C23.1598 136.578 22.9912 137.366 22.6541 138.04C22.317 138.714 21.8435 139.239 21.2337 139.614C20.6238 139.989 19.9098 140.176 19.0916 140.176ZM19.0973 138.75C19.6276 138.75 20.067 138.61 20.4155 138.33C20.764 138.049 21.0215 137.676 21.1882 137.21C21.3587 136.744 21.4439 136.231 21.4439 135.67C21.4439 135.114 21.3587 134.602 21.1882 134.136C21.0215 133.667 20.764 133.29 20.4155 133.006C20.067 132.722 19.6276 132.58 19.0973 132.58C18.5632 132.58 18.12 132.722 17.7678 133.006C17.4193 133.29 17.1598 133.667 16.9893 134.136C16.8227 134.602 16.7393 135.114 16.7393 135.67C16.7393 136.231 16.8227 136.744 16.9893 137.21C17.1598 137.676 17.4193 138.049 17.7678 138.33C18.12 138.61 18.5632 138.75 19.0973 138.75ZM29.2095 131.273V132.636H24.2777V131.273H29.2095ZM25.63 140V130.261C25.63 129.716 25.7493 129.263 25.9879 128.903C26.2266 128.54 26.5429 128.269 26.9368 128.091C27.3307 127.909 27.7588 127.818 28.2209 127.818C28.5618 127.818 28.8535 127.847 29.0959 127.903C29.3383 127.956 29.5182 128.006 29.6357 128.051L29.2379 129.426C29.1584 129.403 29.0561 129.377 28.9311 129.347C28.8061 129.312 28.6546 129.295 28.4766 129.295C28.0637 129.295 27.7682 129.398 27.5902 129.602C27.416 129.807 27.3288 130.102 27.3288 130.489V140H25.63ZM35.1158 131.273V132.636H30.1839V131.273H35.1158ZM31.5362 140V130.261C31.5362 129.716 31.6555 129.263 31.8942 128.903C32.1328 128.54 32.4491 128.269 32.843 128.091C33.237 127.909 33.665 127.818 34.1271 127.818C34.468 127.818 34.7597 127.847 35.0021 127.903C35.2446 127.956 35.4245 128.006 35.5419 128.051L35.1442 129.426C35.0646 129.403 34.9624 129.377 34.8374 129.347C34.7124 129.312 34.5608 129.295 34.3828 129.295C33.9699 129.295 33.6745 129.398 33.4964 129.602C33.3222 129.807 33.2351 130.102 33.2351 130.489V140H31.5362ZM44.7791 140.176C43.9609 140.176 43.2469 139.989 42.6371 139.614C42.0272 139.239 41.5537 138.714 41.2166 138.04C40.8795 137.366 40.7109 136.578 40.7109 135.676C40.7109 134.771 40.8795 133.979 41.2166 133.301C41.5537 132.623 42.0272 132.097 42.6371 131.722C43.2469 131.347 43.9609 131.159 44.7791 131.159C45.5973 131.159 46.3113 131.347 46.9212 131.722C47.531 132.097 48.0045 132.623 48.3416 133.301C48.6787 133.979 48.8473 134.771 48.8473 135.676C48.8473 136.578 48.6787 137.366 48.3416 138.04C48.0045 138.714 47.531 139.239 46.9212 139.614C46.3113 139.989 45.5973 140.176 44.7791 140.176ZM44.7848 138.75C45.3151 138.75 45.7545 138.61 46.103 138.33C46.4515 138.049 46.709 137.676 46.8757 137.21C47.0462 136.744 47.1314 136.231 47.1314 135.67C47.1314 135.114 47.0462 134.602 46.8757 134.136C46.709 133.667 46.4515 133.29 46.103 133.006C45.7545 132.722 45.3151 132.58 44.7848 132.58C44.2507 132.58 43.8075 132.722 43.4553 133.006C43.1068 133.29 42.8473 133.667 42.6768 134.136C42.5102 134.602 42.4268 135.114 42.4268 135.67C42.4268 136.231 42.5102 136.744 42.6768 137.21C42.8473 137.676 43.1068 138.049 43.4553 138.33C43.8075 138.61 44.2507 138.75 44.7848 138.75ZM54.897 131.273V132.636H49.9652V131.273H54.897ZM51.3175 140V130.261C51.3175 129.716 51.4368 129.263 51.6754 128.903C51.9141 128.54 52.2304 128.269 52.6243 128.091C53.0182 127.909 53.4463 127.818 53.9084 127.818C54.2493 127.818 54.541 127.847 54.7834 127.903C55.0258 127.956 55.2057 128.006 55.3232 128.051L54.9254 129.426C54.8459 129.403 54.7436 129.377 54.6186 129.347C54.4936 129.312 54.3421 129.295 54.1641 129.295C53.7512 129.295 53.4557 129.398 53.2777 129.602C53.1035 129.807 53.0163 130.102 53.0163 130.489V140H51.3175ZM63.424 140.193C62.871 140.193 62.371 140.091 61.924 139.886C61.477 139.678 61.1229 139.377 60.8615 138.983C60.6039 138.589 60.4751 138.106 60.4751 137.534C60.4751 137.042 60.5698 136.636 60.7592 136.318C60.9486 136 61.2043 135.748 61.5263 135.562C61.8482 135.377 62.2081 135.237 62.6058 135.142C63.0036 135.047 63.4089 134.975 63.8217 134.926C64.3445 134.866 64.7687 134.816 65.0945 134.778C65.4202 134.737 65.657 134.67 65.8047 134.58C65.9524 134.489 66.0263 134.341 66.0263 134.136V134.097C66.0263 133.6 65.8861 133.216 65.6058 132.943C65.3293 132.67 64.9164 132.534 64.3672 132.534C63.7952 132.534 63.3445 132.661 63.0149 132.915C62.6892 133.165 62.4638 133.443 62.3388 133.75L60.7422 133.386C60.9316 132.856 61.2081 132.428 61.5717 132.102C61.9392 131.773 62.3615 131.534 62.8388 131.386C63.3161 131.235 63.8179 131.159 64.3445 131.159C64.6929 131.159 65.0623 131.201 65.4524 131.284C65.8464 131.364 66.2138 131.511 66.5547 131.727C66.8994 131.943 67.1816 132.252 67.4013 132.653C67.621 133.051 67.7308 133.568 67.7308 134.205V140H66.0717V138.807H66.0036C65.8937 139.027 65.7289 139.242 65.5092 139.455C65.2895 139.667 65.0073 139.843 64.6626 139.983C64.3179 140.123 63.9051 140.193 63.424 140.193ZM63.7933 138.83C64.263 138.83 64.6645 138.737 64.9979 138.551C65.335 138.366 65.5907 138.123 65.7649 137.824C65.9429 137.521 66.032 137.197 66.032 136.852V135.727C65.9714 135.788 65.8539 135.845 65.6797 135.898C65.5092 135.947 65.3142 135.991 65.0945 136.028C64.8748 136.062 64.6607 136.095 64.4524 136.125C64.2441 136.152 64.0698 136.174 63.9297 136.193C63.6001 136.235 63.299 136.305 63.0263 136.403C62.7573 136.502 62.5414 136.644 62.3786 136.83C62.2195 137.011 62.1399 137.254 62.1399 137.557C62.1399 137.977 62.2952 138.295 62.6058 138.511C62.9164 138.723 63.3123 138.83 63.7933 138.83ZM71.6925 128.364V140H69.9936V128.364H71.6925ZM75.6768 128.364V140H73.978V128.364H75.6768ZM88.7365 133.403L87.1967 133.676C87.1323 133.479 87.0301 133.292 86.8899 133.114C86.7536 132.936 86.5679 132.79 86.3331 132.676C86.0982 132.562 85.8047 132.506 85.4524 132.506C84.9714 132.506 84.5698 132.614 84.2479 132.83C83.9259 133.042 83.7649 133.316 83.7649 133.653C83.7649 133.945 83.8729 134.18 84.0888 134.358C84.3047 134.536 84.6532 134.682 85.1342 134.795L86.5206 135.114C87.3236 135.299 87.9221 135.585 88.3161 135.972C88.71 136.358 88.907 136.86 88.907 137.477C88.907 138 88.7554 138.466 88.4524 138.875C88.1532 139.28 87.7346 139.598 87.1967 139.83C86.6626 140.061 86.0433 140.176 85.3388 140.176C84.3615 140.176 83.5642 139.968 82.9467 139.551C82.3293 139.131 81.9505 138.534 81.8104 137.761L83.4524 137.511C83.5547 137.939 83.7649 138.263 84.0831 138.483C84.4013 138.699 84.8161 138.807 85.3274 138.807C85.8842 138.807 86.3293 138.691 86.6626 138.46C86.996 138.225 87.1626 137.939 87.1626 137.602C87.1626 137.33 87.0604 137.1 86.8558 136.915C86.6551 136.729 86.3464 136.589 85.9297 136.494L84.4524 136.17C83.638 135.985 83.0357 135.689 82.6456 135.284C82.2592 134.879 82.0661 134.366 82.0661 133.744C82.0661 133.229 82.21 132.778 82.4979 132.392C82.7857 132.006 83.1835 131.705 83.6911 131.489C84.1986 131.269 84.7801 131.159 85.4354 131.159C86.3786 131.159 87.121 131.364 87.6626 131.773C88.2043 132.178 88.5623 132.722 88.7365 133.403ZM94.8487 131.273V132.636H90.0817V131.273H94.8487ZM91.3601 129.182H93.0589V137.438C93.0589 137.767 93.1082 138.015 93.2067 138.182C93.3052 138.345 93.4321 138.456 93.5874 138.517C93.7464 138.574 93.9188 138.602 94.1044 138.602C94.2408 138.602 94.3601 138.593 94.4624 138.574C94.5646 138.555 94.6442 138.54 94.701 138.528L95.0078 139.932C94.9093 139.97 94.7692 140.008 94.5874 140.045C94.4055 140.087 94.1783 140.11 93.9055 140.114C93.4586 140.121 93.0419 140.042 92.6555 139.875C92.2692 139.708 91.9567 139.451 91.718 139.102C91.4794 138.754 91.3601 138.316 91.3601 137.79V129.182ZM100.31 140.176C99.4922 140.176 98.7782 139.989 98.1683 139.614C97.5585 139.239 97.085 138.714 96.7479 138.04C96.4107 137.366 96.2422 136.578 96.2422 135.676C96.2422 134.771 96.4107 133.979 96.7479 133.301C97.085 132.623 97.5585 132.097 98.1683 131.722C98.7782 131.347 99.4922 131.159 100.31 131.159C101.129 131.159 101.843 131.347 102.452 131.722C103.062 132.097 103.536 132.623 103.873 133.301C104.21 133.979 104.379 134.771 104.379 135.676C104.379 136.578 104.21 137.366 103.873 138.04C103.536 138.714 103.062 139.239 102.452 139.614C101.843 139.989 101.129 140.176 100.31 140.176ZM100.316 138.75C100.846 138.75 101.286 138.61 101.634 138.33C101.983 138.049 102.24 137.676 102.407 137.21C102.577 136.744 102.663 136.231 102.663 135.67C102.663 135.114 102.577 134.602 102.407 134.136C102.24 133.667 101.983 133.29 101.634 133.006C101.286 132.722 100.846 132.58 100.316 132.58C99.782 132.58 99.3388 132.722 98.9865 133.006C98.638 133.29 98.3786 133.667 98.2081 134.136C98.0414 134.602 97.9581 135.114 97.9581 135.67C97.9581 136.231 98.0414 136.744 98.2081 137.21C98.3786 137.676 98.638 138.049 98.9865 138.33C99.3388 138.61 99.782 138.75 100.316 138.75ZM106.275 140V131.273H107.917V132.659H108.008C108.167 132.189 108.447 131.82 108.849 131.551C109.254 131.278 109.712 131.142 110.224 131.142C110.33 131.142 110.455 131.146 110.599 131.153C110.746 131.161 110.862 131.17 110.945 131.182V132.807C110.877 132.788 110.756 132.767 110.582 132.744C110.407 132.718 110.233 132.705 110.059 132.705C109.657 132.705 109.299 132.79 108.985 132.96C108.674 133.127 108.428 133.36 108.246 133.659C108.065 133.955 107.974 134.292 107.974 134.67V140H106.275ZM114.877 140.193C114.324 140.193 113.824 140.091 113.377 139.886C112.93 139.678 112.576 139.377 112.315 138.983C112.057 138.589 111.928 138.106 111.928 137.534C111.928 137.042 112.023 136.636 112.212 136.318C112.402 136 112.657 135.748 112.979 135.562C113.301 135.377 113.661 135.237 114.059 135.142C114.457 135.047 114.862 134.975 115.275 134.926C115.798 134.866 116.222 134.816 116.548 134.778C116.873 134.737 117.11 134.67 117.258 134.58C117.406 134.489 117.479 134.341 117.479 134.136V134.097C117.479 133.6 117.339 133.216 117.059 132.943C116.782 132.67 116.37 132.534 115.82 132.534C115.248 132.534 114.798 132.661 114.468 132.915C114.142 133.165 113.917 133.443 113.792 133.75L112.195 133.386C112.385 132.856 112.661 132.428 113.025 132.102C113.392 131.773 113.815 131.534 114.292 131.386C114.769 131.235 115.271 131.159 115.798 131.159C116.146 131.159 116.515 131.201 116.906 131.284C117.299 131.364 117.667 131.511 118.008 131.727C118.353 131.943 118.635 132.252 118.854 132.653C119.074 133.051 119.184 133.568 119.184 134.205V140H117.525V138.807H117.457C117.347 139.027 117.182 139.242 116.962 139.455C116.743 139.667 116.46 139.843 116.116 139.983C115.771 140.123 115.358 140.193 114.877 140.193ZM115.246 138.83C115.716 138.83 116.118 138.737 116.451 138.551C116.788 138.366 117.044 138.123 117.218 137.824C117.396 137.521 117.485 137.197 117.485 136.852V135.727C117.424 135.788 117.307 135.845 117.133 135.898C116.962 135.947 116.767 135.991 116.548 136.028C116.328 136.062 116.114 136.095 115.906 136.125C115.697 136.152 115.523 136.174 115.383 136.193C115.053 136.235 114.752 136.305 114.479 136.403C114.21 136.502 113.995 136.644 113.832 136.83C113.673 137.011 113.593 137.254 113.593 137.557C113.593 137.977 113.748 138.295 114.059 138.511C114.37 138.723 114.765 138.83 115.246 138.83ZM125.106 143.455C124.413 143.455 123.816 143.364 123.316 143.182C122.82 143 122.415 142.759 122.1 142.46C121.786 142.161 121.551 141.833 121.396 141.477L122.856 140.875C122.958 141.042 123.094 141.218 123.265 141.403C123.439 141.593 123.674 141.754 123.969 141.886C124.269 142.019 124.653 142.085 125.123 142.085C125.767 142.085 126.299 141.928 126.719 141.614C127.14 141.303 127.35 140.807 127.35 140.125V138.409H127.242C127.14 138.595 126.992 138.801 126.799 139.028C126.61 139.256 126.348 139.453 126.015 139.619C125.682 139.786 125.248 139.869 124.714 139.869C124.024 139.869 123.403 139.708 122.85 139.386C122.301 139.061 121.865 138.581 121.543 137.949C121.225 137.312 121.066 136.53 121.066 135.602C121.066 134.674 121.223 133.879 121.538 133.216C121.856 132.553 122.291 132.045 122.844 131.693C123.397 131.337 124.024 131.159 124.725 131.159C125.267 131.159 125.704 131.25 126.038 131.432C126.371 131.61 126.63 131.818 126.816 132.057C127.005 132.295 127.151 132.506 127.254 132.688H127.379V131.273H129.043V140.193C129.043 140.943 128.869 141.559 128.521 142.04C128.172 142.521 127.701 142.877 127.106 143.108C126.515 143.339 125.848 143.455 125.106 143.455ZM125.089 138.46C125.577 138.46 125.99 138.347 126.327 138.119C126.668 137.888 126.926 137.559 127.1 137.131C127.278 136.699 127.367 136.182 127.367 135.58C127.367 134.992 127.28 134.475 127.106 134.028C126.932 133.581 126.676 133.233 126.339 132.983C126.002 132.729 125.585 132.602 125.089 132.602C124.577 132.602 124.151 132.735 123.81 133C123.469 133.261 123.212 133.617 123.038 134.068C122.867 134.519 122.782 135.023 122.782 135.58C122.782 136.152 122.869 136.653 123.043 137.085C123.218 137.517 123.475 137.854 123.816 138.097C124.161 138.339 124.585 138.46 125.089 138.46ZM135.083 140.176C134.223 140.176 133.483 139.992 132.862 139.625C132.244 139.254 131.767 138.733 131.43 138.062C131.096 137.388 130.93 136.598 130.93 135.693C130.93 134.799 131.096 134.011 131.43 133.33C131.767 132.648 132.237 132.116 132.839 131.733C133.445 131.35 134.153 131.159 134.964 131.159C135.456 131.159 135.933 131.241 136.396 131.403C136.858 131.566 137.272 131.822 137.64 132.17C138.007 132.519 138.297 132.972 138.509 133.528C138.721 134.081 138.827 134.754 138.827 135.545V136.148H131.89V134.875H137.163C137.163 134.428 137.072 134.032 136.89 133.688C136.708 133.339 136.452 133.064 136.123 132.864C135.797 132.663 135.415 132.562 134.975 132.562C134.498 132.562 134.081 132.68 133.725 132.915C133.373 133.146 133.1 133.449 132.907 133.824C132.718 134.195 132.623 134.598 132.623 135.034V136.028C132.623 136.612 132.725 137.108 132.93 137.517C133.138 137.926 133.428 138.239 133.799 138.455C134.17 138.667 134.604 138.773 135.1 138.773C135.422 138.773 135.716 138.727 135.981 138.636C136.246 138.542 136.475 138.402 136.668 138.216C136.862 138.03 137.009 137.801 137.112 137.528L138.719 137.818C138.591 138.292 138.36 138.706 138.026 139.062C137.697 139.415 137.282 139.689 136.782 139.886C136.286 140.08 135.719 140.176 135.083 140.176ZM142.923 138.409L142.837 139.028C142.781 139.483 142.684 139.956 142.548 140.449C142.415 140.945 142.277 141.405 142.133 141.83C141.993 142.254 141.877 142.591 141.786 142.841H140.582C140.631 142.606 140.699 142.288 140.786 141.886C140.873 141.489 140.959 141.044 141.042 140.551C141.125 140.059 141.188 139.557 141.229 139.045L141.286 138.409H142.923ZM149.505 140V128.364H151.204V132.688H151.306C151.405 132.506 151.547 132.295 151.732 132.057C151.918 131.818 152.175 131.61 152.505 131.432C152.835 131.25 153.27 131.159 153.812 131.159C154.516 131.159 155.145 131.337 155.698 131.693C156.251 132.049 156.685 132.562 156.999 133.233C157.317 133.903 157.477 134.71 157.477 135.653C157.477 136.597 157.319 137.405 157.005 138.08C156.691 138.75 156.259 139.267 155.71 139.631C155.16 139.991 154.533 140.17 153.829 140.17C153.299 140.17 152.865 140.081 152.528 139.903C152.194 139.725 151.933 139.517 151.744 139.278C151.554 139.04 151.408 138.828 151.306 138.642H151.164V140H149.505ZM151.17 135.636C151.17 136.25 151.259 136.788 151.437 137.25C151.615 137.712 151.872 138.074 152.21 138.335C152.547 138.593 152.96 138.722 153.448 138.722C153.956 138.722 154.38 138.587 154.721 138.318C155.062 138.045 155.319 137.676 155.494 137.21C155.672 136.744 155.761 136.22 155.761 135.636C155.761 135.061 155.674 134.544 155.499 134.085C155.329 133.627 155.071 133.265 154.727 133C154.386 132.735 153.96 132.602 153.448 132.602C152.956 132.602 152.539 132.729 152.198 132.983C151.861 133.237 151.605 133.591 151.431 134.045C151.257 134.5 151.17 135.03 151.17 135.636ZM159.384 140V131.273H161.083V140H159.384ZM160.242 129.926C159.947 129.926 159.693 129.828 159.481 129.631C159.272 129.43 159.168 129.191 159.168 128.915C159.168 128.634 159.272 128.396 159.481 128.199C159.693 127.998 159.947 127.898 160.242 127.898C160.538 127.898 160.79 127.998 160.998 128.199C161.21 128.396 161.316 128.634 161.316 128.915C161.316 129.191 161.21 129.43 160.998 129.631C160.79 129.828 160.538 129.926 160.242 129.926ZM165.067 128.364V140H163.369V128.364H165.067ZM169.052 128.364V140H167.353V128.364H169.052ZM175.099 140.176C174.239 140.176 173.498 139.992 172.877 139.625C172.26 139.254 171.782 138.733 171.445 138.062C171.112 137.388 170.945 136.598 170.945 135.693C170.945 134.799 171.112 134.011 171.445 133.33C171.782 132.648 172.252 132.116 172.854 131.733C173.46 131.35 174.169 131.159 174.979 131.159C175.472 131.159 175.949 131.241 176.411 131.403C176.873 131.566 177.288 131.822 177.656 132.17C178.023 132.519 178.313 132.972 178.525 133.528C178.737 134.081 178.843 134.754 178.843 135.545V136.148H171.906V134.875H177.178C177.178 134.428 177.087 134.032 176.906 133.688C176.724 133.339 176.468 133.064 176.138 132.864C175.813 132.663 175.43 132.562 174.991 132.562C174.513 132.562 174.097 132.68 173.741 132.915C173.388 133.146 173.116 133.449 172.923 133.824C172.733 134.195 172.638 134.598 172.638 135.034V136.028C172.638 136.612 172.741 137.108 172.945 137.517C173.154 137.926 173.443 138.239 173.815 138.455C174.186 138.667 174.62 138.773 175.116 138.773C175.438 138.773 175.731 138.727 175.996 138.636C176.262 138.542 176.491 138.402 176.684 138.216C176.877 138.03 177.025 137.801 177.127 137.528L178.735 137.818C178.606 138.292 178.375 138.706 178.042 139.062C177.712 139.415 177.298 139.689 176.798 139.886C176.301 140.08 175.735 140.176 175.099 140.176ZM183.995 140.17C183.29 140.17 182.662 139.991 182.109 139.631C181.559 139.267 181.128 138.75 180.813 138.08C180.503 137.405 180.347 136.597 180.347 135.653C180.347 134.71 180.504 133.903 180.819 133.233C181.137 132.562 181.573 132.049 182.126 131.693C182.679 131.337 183.306 131.159 184.006 131.159C184.548 131.159 184.984 131.25 185.313 131.432C185.647 131.61 185.904 131.818 186.086 132.057C186.272 132.295 186.415 132.506 186.518 132.688H186.62V128.364H188.319V140H186.66V138.642H186.518C186.415 138.828 186.268 139.04 186.075 139.278C185.885 139.517 185.624 139.725 185.29 139.903C184.957 140.081 184.525 140.17 183.995 140.17ZM184.37 138.722C184.859 138.722 185.272 138.593 185.609 138.335C185.95 138.074 186.207 137.712 186.381 137.25C186.559 136.788 186.648 136.25 186.648 135.636C186.648 135.03 186.561 134.5 186.387 134.045C186.213 133.591 185.957 133.237 185.62 132.983C185.283 132.729 184.866 132.602 184.37 132.602C183.859 132.602 183.433 132.735 183.092 133C182.751 133.265 182.493 133.627 182.319 134.085C182.148 134.544 182.063 135.061 182.063 135.636C182.063 136.22 182.15 136.744 182.325 137.21C182.499 137.676 182.756 138.045 183.097 138.318C183.442 138.587 183.866 138.722 184.37 138.722ZM197.518 140.193C196.965 140.193 196.465 140.091 196.018 139.886C195.571 139.678 195.217 139.377 194.955 138.983C194.698 138.589 194.569 138.106 194.569 137.534C194.569 137.042 194.664 136.636 194.853 136.318C195.042 136 195.298 135.748 195.62 135.562C195.942 135.377 196.302 135.237 196.7 135.142C197.097 135.047 197.503 134.975 197.915 134.926C198.438 134.866 198.862 134.816 199.188 134.778C199.514 134.737 199.751 134.67 199.898 134.58C200.046 134.489 200.12 134.341 200.12 134.136V134.097C200.12 133.6 199.98 133.216 199.7 132.943C199.423 132.67 199.01 132.534 198.461 132.534C197.889 132.534 197.438 132.661 197.109 132.915C196.783 133.165 196.558 133.443 196.433 133.75L194.836 133.386C195.025 132.856 195.302 132.428 195.665 132.102C196.033 131.773 196.455 131.534 196.933 131.386C197.41 131.235 197.912 131.159 198.438 131.159C198.787 131.159 199.156 131.201 199.546 131.284C199.94 131.364 200.308 131.511 200.648 131.727C200.993 131.943 201.275 132.252 201.495 132.653C201.715 133.051 201.825 133.568 201.825 134.205V140H200.165V138.807H200.097C199.987 139.027 199.823 139.242 199.603 139.455C199.383 139.667 199.101 139.843 198.756 139.983C198.412 140.123 197.999 140.193 197.518 140.193ZM197.887 138.83C198.357 138.83 198.758 138.737 199.092 138.551C199.429 138.366 199.684 138.123 199.859 137.824C200.037 137.521 200.126 137.197 200.126 136.852V135.727C200.065 135.788 199.948 135.845 199.773 135.898C199.603 135.947 199.408 135.991 199.188 136.028C198.969 136.062 198.754 136.095 198.546 136.125C198.338 136.152 198.164 136.174 198.023 136.193C197.694 136.235 197.393 136.305 197.12 136.403C196.851 136.502 196.635 136.644 196.472 136.83C196.313 137.011 196.234 137.254 196.234 137.557C196.234 137.977 196.389 138.295 196.7 138.511C197.01 138.723 197.406 138.83 197.887 138.83ZM205.786 134.818V140H204.087V131.273H205.718V132.693H205.826C206.027 132.231 206.341 131.86 206.769 131.58C207.201 131.299 207.745 131.159 208.4 131.159C208.995 131.159 209.515 131.284 209.962 131.534C210.409 131.78 210.756 132.148 211.002 132.636C211.248 133.125 211.371 133.729 211.371 134.449V140H209.673V134.653C209.673 134.021 209.508 133.527 209.178 133.17C208.849 132.811 208.396 132.631 207.82 132.631C207.426 132.631 207.076 132.716 206.769 132.886C206.466 133.057 206.226 133.307 206.048 133.636C205.873 133.962 205.786 134.356 205.786 134.818ZM215.349 134.818V140H213.65V131.273H215.281V132.693H215.388C215.589 132.231 215.904 131.86 216.332 131.58C216.763 131.299 217.307 131.159 217.962 131.159C218.557 131.159 219.078 131.284 219.525 131.534C219.972 131.78 220.318 132.148 220.565 132.636C220.811 133.125 220.934 133.729 220.934 134.449V140H219.235V134.653C219.235 134.021 219.07 133.527 218.741 133.17C218.411 132.811 217.959 132.631 217.383 132.631C216.989 132.631 216.638 132.716 216.332 132.886C216.029 133.057 215.788 133.307 215.61 133.636C215.436 133.962 215.349 134.356 215.349 134.818ZM228.741 136.381V131.273H230.445V140H228.775V138.489H228.684C228.483 138.955 228.161 139.343 227.718 139.653C227.279 139.96 226.731 140.114 226.076 140.114C225.515 140.114 225.019 139.991 224.587 139.744C224.159 139.494 223.822 139.125 223.576 138.636C223.334 138.148 223.212 137.544 223.212 136.824V131.273H224.911V136.619C224.911 137.214 225.076 137.687 225.406 138.04C225.735 138.392 226.163 138.568 226.69 138.568C227.008 138.568 227.324 138.489 227.638 138.33C227.957 138.17 228.22 137.93 228.428 137.608C228.64 137.286 228.745 136.877 228.741 136.381ZM235.268 140.193C234.715 140.193 234.215 140.091 233.768 139.886C233.321 139.678 232.967 139.377 232.705 138.983C232.448 138.589 232.319 138.106 232.319 137.534C232.319 137.042 232.414 136.636 232.603 136.318C232.792 136 233.048 135.748 233.37 135.562C233.692 135.377 234.052 135.237 234.45 135.142C234.847 135.047 235.253 134.975 235.665 134.926C236.188 134.866 236.612 134.816 236.938 134.778C237.264 134.737 237.501 134.67 237.648 134.58C237.796 134.489 237.87 134.341 237.87 134.136V134.097C237.87 133.6 237.73 133.216 237.45 132.943C237.173 132.67 236.76 132.534 236.211 132.534C235.639 132.534 235.188 132.661 234.859 132.915C234.533 133.165 234.308 133.443 234.183 133.75L232.586 133.386C232.775 132.856 233.052 132.428 233.415 132.102C233.783 131.773 234.205 131.534 234.683 131.386C235.16 131.235 235.662 131.159 236.188 131.159C236.537 131.159 236.906 131.201 237.296 131.284C237.69 131.364 238.058 131.511 238.398 131.727C238.743 131.943 239.025 132.252 239.245 132.653C239.465 133.051 239.575 133.568 239.575 134.205V140H237.915V138.807H237.847C237.737 139.027 237.573 139.242 237.353 139.455C237.133 139.667 236.851 139.843 236.506 139.983C236.162 140.123 235.749 140.193 235.268 140.193ZM235.637 138.83C236.107 138.83 236.508 138.737 236.842 138.551C237.179 138.366 237.434 138.123 237.609 137.824C237.787 137.521 237.876 137.197 237.876 136.852V135.727C237.815 135.788 237.698 135.845 237.523 135.898C237.353 135.947 237.158 135.991 236.938 136.028C236.719 136.062 236.504 136.095 236.296 136.125C236.088 136.152 235.914 136.174 235.773 136.193C235.444 136.235 235.143 136.305 234.87 136.403C234.601 136.502 234.385 136.644 234.222 136.83C234.063 137.011 233.984 137.254 233.984 137.557C233.984 137.977 234.139 138.295 234.45 138.511C234.76 138.723 235.156 138.83 235.637 138.83ZM243.536 128.364V140H241.837V128.364H243.536ZM247.521 128.364V140H245.822V128.364H247.521ZM250.88 143.273C250.626 143.273 250.395 143.252 250.187 143.21C249.978 143.172 249.823 143.131 249.721 143.085L250.13 141.693C250.441 141.777 250.717 141.813 250.96 141.801C251.202 141.79 251.416 141.699 251.602 141.528C251.791 141.358 251.958 141.08 252.102 140.693L252.312 140.114L249.119 131.273H250.937L253.147 138.045H253.238L255.448 131.273H257.272L253.675 141.165C253.509 141.619 253.297 142.004 253.039 142.318C252.781 142.636 252.475 142.875 252.119 143.034C251.763 143.193 251.35 143.273 250.88 143.273ZM80.0767 153.273V154.636H75.1449V153.273H80.0767ZM76.4972 162V152.261C76.4972 151.716 76.6165 151.263 76.8551 150.903C77.0938 150.54 77.41 150.269 77.804 150.091C78.1979 149.909 78.6259 149.818 79.0881 149.818C79.429 149.818 79.7206 149.847 79.9631 149.903C80.2055 149.956 80.3854 150.006 80.5028 150.051L80.1051 151.426C80.0256 151.403 79.9233 151.377 79.7983 151.347C79.6733 151.312 79.5218 151.295 79.3438 151.295C78.9309 151.295 78.6354 151.398 78.4574 151.602C78.2831 151.807 78.196 152.102 78.196 152.489V162H76.4972ZM85.1619 162.176C84.3438 162.176 83.6297 161.989 83.0199 161.614C82.41 161.239 81.9366 160.714 81.5994 160.04C81.2623 159.366 81.0938 158.578 81.0938 157.676C81.0938 156.771 81.2623 155.979 81.5994 155.301C81.9366 154.623 82.41 154.097 83.0199 153.722C83.6297 153.347 84.3438 153.159 85.1619 153.159C85.9801 153.159 86.6941 153.347 87.304 153.722C87.9138 154.097 88.3873 154.623 88.7244 155.301C89.0616 155.979 89.2301 156.771 89.2301 157.676C89.2301 158.578 89.0616 159.366 88.7244 160.04C88.3873 160.714 87.9138 161.239 87.304 161.614C86.6941 161.989 85.9801 162.176 85.1619 162.176ZM85.1676 160.75C85.6979 160.75 86.1373 160.61 86.4858 160.33C86.8343 160.049 87.0919 159.676 87.2585 159.21C87.429 158.744 87.5142 158.231 87.5142 157.67C87.5142 157.114 87.429 156.602 87.2585 156.136C87.0919 155.667 86.8343 155.29 86.4858 155.006C86.1373 154.722 85.6979 154.58 85.1676 154.58C84.6335 154.58 84.1903 154.722 83.8381 155.006C83.4896 155.29 83.2301 155.667 83.0597 156.136C82.893 156.602 82.8097 157.114 82.8097 157.67C82.8097 158.231 82.893 158.744 83.0597 159.21C83.2301 159.676 83.4896 160.049 83.8381 160.33C84.1903 160.61 84.6335 160.75 85.1676 160.75ZM91.1264 162V153.273H92.7685V154.659H92.8594C93.0185 154.189 93.2988 153.82 93.7003 153.551C94.1056 153.278 94.5639 153.142 95.0753 153.142C95.1813 153.142 95.3063 153.146 95.4503 153.153C95.598 153.161 95.7135 153.17 95.7969 153.182V154.807C95.7287 154.788 95.6075 154.767 95.4332 154.744C95.259 154.718 95.0848 154.705 94.9105 154.705C94.509 154.705 94.151 154.79 93.8366 154.96C93.526 155.127 93.2798 155.36 93.098 155.659C92.9162 155.955 92.8253 156.292 92.8253 156.67V162H91.1264ZM101.479 162V160.727L105.416 156.648C105.837 156.205 106.183 155.816 106.456 155.483C106.732 155.146 106.939 154.826 107.075 154.523C107.212 154.22 107.28 153.898 107.28 153.557C107.28 153.17 107.189 152.837 107.007 152.557C106.825 152.273 106.577 152.055 106.263 151.903C105.948 151.748 105.594 151.67 105.2 151.67C104.784 151.67 104.42 151.756 104.109 151.926C103.799 152.097 103.56 152.337 103.393 152.648C103.227 152.958 103.143 153.322 103.143 153.739H101.467C101.467 153.03 101.63 152.411 101.956 151.881C102.282 151.35 102.729 150.939 103.297 150.648C103.865 150.352 104.511 150.205 105.234 150.205C105.965 150.205 106.609 150.35 107.166 150.642C107.727 150.93 108.164 151.324 108.479 151.824C108.793 152.32 108.95 152.881 108.95 153.506C108.95 153.938 108.869 154.36 108.706 154.773C108.547 155.186 108.268 155.646 107.871 156.153C107.473 156.657 106.92 157.269 106.212 157.989L103.899 160.409V160.494H109.138V162H101.479ZM116.622 165.273C116.368 165.273 116.137 165.252 115.929 165.21C115.721 165.172 115.565 165.131 115.463 165.085L115.872 163.693C116.183 163.777 116.459 163.813 116.702 163.801C116.944 163.79 117.158 163.699 117.344 163.528C117.533 163.358 117.7 163.08 117.844 162.693L118.054 162.114L114.861 153.273H116.679L118.889 160.045H118.98L121.19 153.273H123.014L119.418 163.165C119.251 163.619 119.039 164.004 118.781 164.318C118.524 164.636 118.217 164.875 117.861 165.034C117.505 165.193 117.092 165.273 116.622 165.273ZM128.075 162.176C127.215 162.176 126.475 161.992 125.854 161.625C125.236 161.254 124.759 160.733 124.422 160.062C124.089 159.388 123.922 158.598 123.922 157.693C123.922 156.799 124.089 156.011 124.422 155.33C124.759 154.648 125.229 154.116 125.831 153.733C126.437 153.35 127.145 153.159 127.956 153.159C128.448 153.159 128.926 153.241 129.388 153.403C129.85 153.566 130.265 153.822 130.632 154.17C131 154.519 131.289 154.972 131.501 155.528C131.714 156.081 131.82 156.754 131.82 157.545V158.148H124.882V156.875H130.155C130.155 156.428 130.064 156.032 129.882 155.688C129.7 155.339 129.445 155.064 129.115 154.864C128.789 154.663 128.407 154.562 127.967 154.562C127.49 154.562 127.073 154.68 126.717 154.915C126.365 155.146 126.092 155.449 125.899 155.824C125.71 156.195 125.615 156.598 125.615 157.034V158.028C125.615 158.612 125.717 159.108 125.922 159.517C126.13 159.926 126.42 160.239 126.791 160.455C127.162 160.667 127.596 160.773 128.092 160.773C128.414 160.773 128.708 160.727 128.973 160.636C129.238 160.542 129.467 160.402 129.661 160.216C129.854 160.03 130.001 159.801 130.104 159.528L131.712 159.818C131.583 160.292 131.352 160.706 131.018 161.062C130.689 161.415 130.274 161.689 129.774 161.886C129.278 162.08 128.712 162.176 128.075 162.176ZM136.244 162.193C135.691 162.193 135.191 162.091 134.744 161.886C134.297 161.678 133.943 161.377 133.682 160.983C133.424 160.589 133.295 160.106 133.295 159.534C133.295 159.042 133.39 158.636 133.58 158.318C133.769 158 134.025 157.748 134.347 157.562C134.669 157.377 135.028 157.237 135.426 157.142C135.824 157.047 136.229 156.975 136.642 156.926C137.165 156.866 137.589 156.816 137.915 156.778C138.241 156.737 138.477 156.67 138.625 156.58C138.773 156.489 138.847 156.341 138.847 156.136V156.097C138.847 155.6 138.706 155.216 138.426 154.943C138.15 154.67 137.737 154.534 137.188 154.534C136.616 154.534 136.165 154.661 135.835 154.915C135.509 155.165 135.284 155.443 135.159 155.75L133.562 155.386C133.752 154.856 134.028 154.428 134.392 154.102C134.759 153.773 135.182 153.534 135.659 153.386C136.136 153.235 136.638 153.159 137.165 153.159C137.513 153.159 137.883 153.201 138.273 153.284C138.667 153.364 139.034 153.511 139.375 153.727C139.72 153.943 140.002 154.252 140.222 154.653C140.441 155.051 140.551 155.568 140.551 156.205V162H138.892V160.807H138.824C138.714 161.027 138.549 161.242 138.33 161.455C138.11 161.667 137.828 161.843 137.483 161.983C137.138 162.123 136.725 162.193 136.244 162.193ZM136.614 160.83C137.083 160.83 137.485 160.737 137.818 160.551C138.155 160.366 138.411 160.123 138.585 159.824C138.763 159.521 138.852 159.197 138.852 158.852V157.727C138.792 157.788 138.674 157.845 138.5 157.898C138.33 157.947 138.134 157.991 137.915 158.028C137.695 158.062 137.481 158.095 137.273 158.125C137.064 158.152 136.89 158.174 136.75 158.193C136.42 158.235 136.119 158.305 135.847 158.403C135.578 158.502 135.362 158.644 135.199 158.83C135.04 159.011 134.96 159.254 134.96 159.557C134.96 159.977 135.116 160.295 135.426 160.511C135.737 160.723 136.133 160.83 136.614 160.83ZM142.814 162V153.273H144.456V154.659H144.547C144.706 154.189 144.986 153.82 145.388 153.551C145.793 153.278 146.251 153.142 146.763 153.142C146.869 153.142 146.994 153.146 147.138 153.153C147.286 153.161 147.401 153.17 147.484 153.182V154.807C147.416 154.788 147.295 154.767 147.121 154.744C146.946 154.718 146.772 154.705 146.598 154.705C146.196 154.705 145.839 154.79 145.524 154.96C145.214 155.127 144.967 155.36 144.786 155.659C144.604 155.955 144.513 156.292 144.513 156.67V162H142.814ZM155.494 155.403L153.955 155.676C153.89 155.479 153.788 155.292 153.648 155.114C153.511 154.936 153.326 154.79 153.091 154.676C152.856 154.562 152.563 154.506 152.21 154.506C151.729 154.506 151.328 154.614 151.006 154.83C150.684 155.042 150.523 155.316 150.523 155.653C150.523 155.945 150.631 156.18 150.847 156.358C151.063 156.536 151.411 156.682 151.892 156.795L153.278 157.114C154.081 157.299 154.68 157.585 155.074 157.972C155.468 158.358 155.665 158.86 155.665 159.477C155.665 160 155.513 160.466 155.21 160.875C154.911 161.28 154.492 161.598 153.955 161.83C153.42 162.061 152.801 162.176 152.097 162.176C151.119 162.176 150.322 161.968 149.705 161.551C149.087 161.131 148.708 160.534 148.568 159.761L150.21 159.511C150.313 159.939 150.523 160.263 150.841 160.483C151.159 160.699 151.574 160.807 152.085 160.807C152.642 160.807 153.087 160.691 153.42 160.46C153.754 160.225 153.92 159.939 153.92 159.602C153.92 159.33 153.818 159.1 153.614 158.915C153.413 158.729 153.104 158.589 152.688 158.494L151.21 158.17C150.396 157.985 149.794 157.689 149.403 157.284C149.017 156.879 148.824 156.366 148.824 155.744C148.824 155.229 148.968 154.778 149.256 154.392C149.544 154.006 149.941 153.705 150.449 153.489C150.956 153.269 151.538 153.159 152.193 153.159C153.136 153.159 153.879 153.364 154.42 153.773C154.962 154.178 155.32 154.722 155.494 155.403ZM161.767 162V153.273H163.398V154.693H163.506C163.688 154.212 163.985 153.837 164.398 153.568C164.811 153.295 165.305 153.159 165.881 153.159C166.464 153.159 166.953 153.295 167.347 153.568C167.744 153.841 168.038 154.216 168.227 154.693H168.318C168.527 154.227 168.858 153.856 169.312 153.58C169.767 153.299 170.309 153.159 170.938 153.159C171.729 153.159 172.375 153.407 172.875 153.903C173.379 154.4 173.631 155.148 173.631 156.148V162H171.932V156.307C171.932 155.716 171.771 155.288 171.449 155.023C171.127 154.758 170.742 154.625 170.295 154.625C169.742 154.625 169.312 154.795 169.006 155.136C168.699 155.473 168.545 155.907 168.545 156.438V162H166.852V156.199C166.852 155.725 166.705 155.345 166.409 155.057C166.114 154.769 165.729 154.625 165.256 154.625C164.934 154.625 164.636 154.71 164.364 154.881C164.095 155.047 163.877 155.28 163.71 155.58C163.547 155.879 163.466 156.225 163.466 156.619V162H161.767ZM178.447 162.193C177.894 162.193 177.394 162.091 176.947 161.886C176.5 161.678 176.146 161.377 175.885 160.983C175.627 160.589 175.499 160.106 175.499 159.534C175.499 159.042 175.593 158.636 175.783 158.318C175.972 158 176.228 157.748 176.55 157.562C176.872 157.377 177.232 157.237 177.629 157.142C178.027 157.047 178.432 156.975 178.845 156.926C179.368 156.866 179.792 156.816 180.118 156.778C180.444 156.737 180.68 156.67 180.828 156.58C180.976 156.489 181.05 156.341 181.05 156.136V156.097C181.05 155.6 180.91 155.216 180.629 154.943C180.353 154.67 179.94 154.534 179.391 154.534C178.819 154.534 178.368 154.661 178.038 154.915C177.713 155.165 177.487 155.443 177.362 155.75L175.766 155.386C175.955 154.856 176.232 154.428 176.595 154.102C176.963 153.773 177.385 153.534 177.862 153.386C178.339 153.235 178.841 153.159 179.368 153.159C179.716 153.159 180.086 153.201 180.476 153.284C180.87 153.364 181.237 153.511 181.578 153.727C181.923 153.943 182.205 154.252 182.425 154.653C182.644 155.051 182.754 155.568 182.754 156.205V162H181.095V160.807H181.027C180.917 161.027 180.752 161.242 180.533 161.455C180.313 161.667 180.031 161.843 179.686 161.983C179.341 162.123 178.929 162.193 178.447 162.193ZM178.817 160.83C179.286 160.83 179.688 160.737 180.021 160.551C180.358 160.366 180.614 160.123 180.788 159.824C180.966 159.521 181.055 159.197 181.055 158.852V157.727C180.995 157.788 180.877 157.845 180.703 157.898C180.533 157.947 180.338 157.991 180.118 158.028C179.898 158.062 179.684 158.095 179.476 158.125C179.268 158.152 179.093 158.174 178.953 158.193C178.624 158.235 178.322 158.305 178.05 158.403C177.781 158.502 177.565 158.644 177.402 158.83C177.243 159.011 177.163 159.254 177.163 159.557C177.163 159.977 177.319 160.295 177.629 160.511C177.94 160.723 178.336 160.83 178.817 160.83ZM186.358 153.273L188.284 156.67L190.227 153.273H192.085L189.364 157.636L192.108 162H190.25L188.284 158.739L186.324 162H184.46L187.176 157.636L184.494 153.273H186.358ZM194.949 162.108C194.638 162.108 194.371 161.998 194.148 161.778C193.924 161.555 193.812 161.286 193.812 160.972C193.812 160.661 193.924 160.396 194.148 160.176C194.371 159.953 194.638 159.841 194.949 159.841C195.259 159.841 195.527 159.953 195.75 160.176C195.973 160.396 196.085 160.661 196.085 160.972C196.085 161.18 196.032 161.371 195.926 161.545C195.824 161.716 195.688 161.852 195.517 161.955C195.347 162.057 195.157 162.108 194.949 162.108Z" fill="#45556C"/>
<path d="M12 187C12 182.582 15.5817 179 20 179H252C256.418 179 260 182.582 260 187V203C260 207.418 256.418 211 252 211H20C15.5817 211 12 207.418 12 203V187Z" fill="#615FFF"/>
<path d="M107.451 200V189.818H111.179C111.902 189.818 112.5 189.937 112.974 190.176C113.448 190.411 113.803 190.731 114.038 191.136C114.273 191.537 114.391 191.989 114.391 192.493C114.391 192.917 114.313 193.275 114.157 193.567C114.002 193.855 113.793 194.087 113.531 194.263C113.272 194.435 112.987 194.561 112.676 194.641V194.74C113.014 194.757 113.344 194.866 113.665 195.068C113.99 195.267 114.258 195.55 114.471 195.918C114.683 196.286 114.789 196.734 114.789 197.261C114.789 197.781 114.666 198.248 114.421 198.663C114.179 199.074 113.804 199.4 113.297 199.642C112.79 199.881 112.142 200 111.353 200H107.451ZM108.987 198.683H111.204C111.94 198.683 112.467 198.54 112.785 198.255C113.103 197.97 113.262 197.614 113.262 197.186C113.262 196.865 113.181 196.57 113.019 196.301C112.856 196.033 112.624 195.819 112.323 195.66C112.025 195.501 111.67 195.421 111.259 195.421H108.987V198.683ZM108.987 194.223H111.045C111.39 194.223 111.7 194.157 111.975 194.024C112.253 193.892 112.474 193.706 112.636 193.467C112.802 193.225 112.885 192.94 112.885 192.612C112.885 192.191 112.737 191.838 112.442 191.553C112.147 191.268 111.695 191.126 111.085 191.126H108.987V194.223ZM121.329 196.833V192.364H122.82V200H121.359V198.678H121.279C121.103 199.085 120.822 199.425 120.434 199.697C120.049 199.965 119.571 200.099 118.997 200.099C118.507 200.099 118.072 199.992 117.695 199.776C117.32 199.558 117.025 199.234 116.81 198.807C116.598 198.379 116.491 197.851 116.491 197.221V192.364H117.978V197.042C117.978 197.562 118.122 197.977 118.411 198.285C118.699 198.593 119.073 198.747 119.534 198.747C119.813 198.747 120.089 198.678 120.364 198.538C120.643 198.399 120.873 198.189 121.055 197.907C121.241 197.625 121.332 197.267 121.329 196.833ZM125.757 202.864C125.535 202.864 125.333 202.845 125.151 202.809C124.968 202.776 124.833 202.739 124.743 202.7L125.101 201.482C125.373 201.554 125.615 201.586 125.827 201.576C126.039 201.566 126.226 201.487 126.389 201.337C126.554 201.188 126.7 200.945 126.826 200.607L127.01 200.099L124.216 192.364H125.807L127.741 198.29H127.82L129.754 192.364H131.35L128.203 201.019C128.057 201.417 127.872 201.753 127.646 202.028C127.421 202.307 127.153 202.516 126.841 202.655C126.53 202.794 126.168 202.864 125.757 202.864ZM144.79 189.818V200H143.378L138.202 192.533H138.108V200H136.572V189.818H137.994L143.174 197.295H143.268V189.818H144.79ZM150.128 200.154C149.412 200.154 148.787 199.99 148.254 199.662C147.72 199.334 147.306 198.875 147.011 198.285C146.716 197.695 146.568 197.005 146.568 196.217C146.568 195.424 146.716 194.732 147.011 194.138C147.306 193.545 147.72 193.085 148.254 192.756C148.787 192.428 149.412 192.264 150.128 192.264C150.844 192.264 151.469 192.428 152.002 192.756C152.536 193.085 152.95 193.545 153.245 194.138C153.54 194.732 153.688 195.424 153.688 196.217C153.688 197.005 153.54 197.695 153.245 198.285C152.95 198.875 152.536 199.334 152.002 199.662C151.469 199.99 150.844 200.154 150.128 200.154ZM150.133 198.906C150.597 198.906 150.981 198.784 151.286 198.538C151.591 198.293 151.817 197.967 151.963 197.559C152.112 197.151 152.186 196.702 152.186 196.212C152.186 195.724 152.112 195.277 151.963 194.869C151.817 194.458 151.591 194.129 151.286 193.88C150.981 193.631 150.597 193.507 150.133 193.507C149.666 193.507 149.278 193.631 148.97 193.88C148.665 194.129 148.438 194.458 148.289 194.869C148.143 195.277 148.07 195.724 148.07 196.212C148.07 196.702 148.143 197.151 148.289 197.559C148.438 197.967 148.665 198.293 148.97 198.538C149.278 198.784 149.666 198.906 150.133 198.906ZM156.77 200L154.523 192.364H156.059L157.556 197.972H157.63L159.132 192.364H160.668L162.159 197.947H162.234L163.72 192.364H165.257L163.014 200H161.498L159.947 194.487H159.833L158.281 200H156.77Z" fill="white"/>
</svg>
