<svg width="272" height="452" viewBox="0 0 272 452" fill="none" xmlns="http://www.w3.org/2000/svg">
<path d="M18.396 356.627C18.456 356.265 18.7693 356 19.136 356H20.8646C21.2313 356 21.5446 356.265 21.6046 356.627L21.7466 357.481C21.7886 357.73 21.9553 357.938 22.1766 358.061C22.226 358.087 22.2746 358.116 22.3233 358.145C22.54 358.276 22.8033 358.317 23.04 358.228L23.8513 357.924C24.0176 357.861 24.2006 357.86 24.3679 357.92C24.5352 357.98 24.6757 358.097 24.7646 358.251L25.6286 359.749C25.7173 359.902 25.7486 360.083 25.7169 360.257C25.6851 360.432 25.5924 360.59 25.4553 360.703L24.7866 361.254C24.5913 361.415 24.4946 361.663 24.5 361.915C24.5009 361.972 24.5009 362.029 24.5 362.085C24.4946 362.337 24.5913 362.585 24.7866 362.746L25.456 363.297C25.7386 363.531 25.812 363.934 25.6293 364.251L24.764 365.749C24.6752 365.902 24.5348 366.02 24.3676 366.08C24.2005 366.14 24.0176 366.138 23.8513 366.076L23.04 365.772C22.8033 365.683 22.54 365.724 22.3226 365.855C22.2743 365.884 22.2254 365.913 22.176 365.94C21.9553 366.062 21.7886 366.27 21.7466 366.519L21.6046 367.373C21.5446 367.735 21.2313 368 20.8646 368H19.1353C18.7686 368 18.456 367.735 18.3953 367.373L18.2533 366.519C18.212 366.27 18.0453 366.062 17.824 365.939C17.7745 365.912 17.7256 365.884 17.6773 365.855C17.4606 365.724 17.1973 365.683 16.96 365.772L16.1486 366.076C15.9825 366.138 15.7996 366.14 15.6324 366.08C15.4653 366.02 15.3248 365.903 15.236 365.749L14.3713 364.251C14.2826 364.098 14.2513 363.917 14.2831 363.743C14.3148 363.568 14.4075 363.41 14.5446 363.297L15.214 362.746C15.4086 362.586 15.5053 362.337 15.5006 362.085C15.4996 362.029 15.4996 361.972 15.5006 361.915C15.5053 361.662 15.4086 361.415 15.214 361.254L14.5446 360.703C14.4077 360.59 14.3151 360.432 14.2834 360.258C14.2516 360.083 14.2828 359.903 14.3713 359.749L15.236 358.251C15.3248 358.097 15.4653 357.98 15.6326 357.92C15.7998 357.86 15.983 357.862 16.1493 357.924L16.96 358.228C17.1973 358.317 17.4606 358.276 17.6773 358.145C17.7253 358.116 17.7746 358.088 17.824 358.06C18.0453 357.938 18.212 357.73 18.2533 357.481L18.396 356.627Z" stroke="black" stroke-width="1.5" stroke-linecap="round" stroke-linejoin="round"/>
<path d="M22 362C22 362.53 21.7893 363.039 21.4142 363.414C21.0391 363.789 20.5304 364 20 364C19.4696 364 18.9609 363.789 18.5858 363.414C18.2107 363.039 18 362.53 18 362C18 361.47 18.2107 360.961 18.5858 360.586C18.9609 360.211 19.4696 360 20 360C20.5304 360 21.0391 360.211 21.4142 360.586C21.7893 360.961 22 361.47 22 362Z" stroke="black" stroke-width="1.5" stroke-linecap="round" stroke-linejoin="round"/>
<path d="M38.8496 359.493C38.7966 359.022 38.5778 358.658 38.1934 358.399C37.8089 358.137 37.325 358.006 36.7417 358.006C36.324 358.006 35.9628 358.073 35.6578 358.205C35.3529 358.335 35.1159 358.513 34.9469 358.742C34.7812 358.968 34.6983 359.224 34.6983 359.513C34.6983 359.755 34.7547 359.964 34.8674 360.139C34.9834 360.315 35.1342 360.462 35.3198 360.582C35.5087 360.698 35.7109 360.795 35.9263 360.875C36.1417 360.951 36.3489 361.014 36.5478 361.064L37.5421 361.322C37.8669 361.402 38.2 361.51 38.5414 361.646C38.8828 361.781 39.1993 361.96 39.4909 362.183C39.7826 362.405 40.0179 362.68 40.1969 363.008C40.3792 363.336 40.4703 363.729 40.4703 364.186C40.4703 364.763 40.3212 365.275 40.0229 365.722C39.7279 366.17 39.2987 366.523 38.7353 366.781C38.1751 367.04 37.4973 367.169 36.7019 367.169C35.9396 367.169 35.28 367.048 34.7232 366.806C34.1664 366.564 33.7305 366.221 33.4157 365.777C33.1008 365.33 32.9268 364.799 32.8936 364.186H34.4348C34.4647 364.554 34.584 364.861 34.7928 365.106C35.0049 365.348 35.275 365.528 35.6032 365.648C35.9346 365.764 36.2975 365.822 36.6919 365.822C37.1261 365.822 37.5123 365.754 37.8503 365.618C38.1917 365.479 38.4602 365.286 38.6557 365.041C38.8513 364.793 38.949 364.503 38.949 364.171C38.949 363.87 38.8629 363.623 38.6905 363.43C38.5215 363.238 38.2911 363.079 37.9995 362.953C37.7111 362.827 37.3846 362.716 37.0201 362.62L35.8169 362.292C35.0016 362.07 34.3553 361.743 33.878 361.312C33.4041 360.882 33.1671 360.312 33.1671 359.602C33.1671 359.016 33.3262 358.504 33.6444 358.066C33.9625 357.629 34.3934 357.289 34.937 357.047C35.4805 356.802 36.0937 356.679 36.7765 356.679C37.4658 356.679 38.074 356.8 38.601 357.042C39.1313 357.284 39.5489 357.617 39.8539 358.041C40.1588 358.462 40.3179 358.946 40.3311 359.493H38.8496ZM45.478 367.154C44.7256 367.154 44.0777 366.993 43.5341 366.672C42.9938 366.347 42.5762 365.891 42.2812 365.305C41.9896 364.715 41.8438 364.024 41.8438 363.232C41.8438 362.449 41.9896 361.76 42.2812 361.163C42.5762 360.567 42.9872 360.101 43.5142 359.766C44.0445 359.432 44.6643 359.264 45.3736 359.264C45.8045 359.264 46.2221 359.335 46.6264 359.478C47.0308 359.621 47.3937 359.844 47.7152 360.149C48.0367 360.454 48.2902 360.85 48.4759 361.337C48.6615 361.821 48.7543 362.41 48.7543 363.102V363.629H42.6839V362.516H47.2976C47.2976 362.125 47.218 361.778 47.0589 361.477C46.8999 361.172 46.6761 360.931 46.3878 360.756C46.1027 360.58 45.768 360.492 45.3835 360.492C44.9659 360.492 44.6013 360.595 44.2898 360.8C43.9815 361.003 43.7429 361.268 43.5739 361.596C43.4081 361.921 43.3253 362.274 43.3253 362.655V363.525C43.3253 364.035 43.4148 364.469 43.5938 364.827C43.776 365.185 44.0296 365.459 44.3544 365.648C44.6792 365.833 45.0587 365.926 45.4929 365.926C45.7746 365.926 46.0315 365.886 46.2635 365.807C46.4955 365.724 46.696 365.601 46.8651 365.439C47.0341 365.277 47.1634 365.076 47.2528 364.837L48.6598 365.091C48.5471 365.505 48.3449 365.868 48.0533 366.18C47.7649 366.488 47.402 366.728 46.9645 366.901C46.5303 367.07 46.0348 367.154 45.478 367.154ZM53.9682 359.364V360.557H49.7971V359.364H53.9682ZM50.9157 357.534H52.4022V364.758C52.4022 365.046 52.4453 365.263 52.5314 365.409C52.6176 365.552 52.7286 365.649 52.8645 365.702C53.0037 365.752 53.1545 365.777 53.3169 365.777C53.4363 365.777 53.5407 365.769 53.6301 365.752C53.7196 365.736 53.7892 365.722 53.839 365.712L54.1074 366.94C54.0212 366.973 53.8986 367.007 53.7395 367.04C53.5804 367.076 53.3816 367.096 53.1429 367.099C52.7518 367.106 52.3873 367.036 52.0492 366.891C51.7111 366.745 51.4377 366.519 51.2289 366.214C51.0201 365.91 50.9157 365.527 50.9157 365.066V357.534ZM59.1772 359.364V360.557H55.006V359.364H59.1772ZM56.1246 357.534H57.6112V364.758C57.6112 365.046 57.6542 365.263 57.7404 365.409C57.8266 365.552 57.9376 365.649 58.0735 365.702C58.2127 365.752 58.3635 365.777 58.5259 365.777C58.6452 365.777 58.7496 365.769 58.8391 365.752C58.9286 365.736 58.9982 365.722 59.0479 365.712L59.3164 366.94C59.2302 366.973 59.1076 367.007 58.9485 367.04C58.7894 367.076 58.5906 367.096 58.3519 367.099C57.9608 367.106 57.5962 367.036 57.2582 366.891C56.9201 366.745 56.6467 366.519 56.4379 366.214C56.229 365.91 56.1246 365.527 56.1246 365.066V357.534ZM60.8216 367V359.364H62.3081V367H60.8216ZM61.5723 358.185C61.3137 358.185 61.0917 358.099 60.9061 357.927C60.7238 357.751 60.6326 357.542 60.6326 357.3C60.6326 357.055 60.7238 356.846 60.9061 356.674C61.0917 356.498 61.3137 356.411 61.5723 356.411C61.8308 356.411 62.0512 356.498 62.2335 356.674C62.4191 356.846 62.5119 357.055 62.5119 357.3C62.5119 357.542 62.4191 357.751 62.2335 357.927C62.0512 358.099 61.8308 358.185 61.5723 358.185ZM65.7944 362.466V367H64.3079V359.364H65.7347V360.607H65.8292C66.0049 360.202 66.2799 359.877 66.6545 359.632C67.0323 359.387 67.5079 359.264 68.0813 359.264C68.6017 359.264 69.0574 359.374 69.4485 359.592C69.8396 359.808 70.1429 360.129 70.3583 360.557C70.5737 360.984 70.6815 361.513 70.6815 362.143V367H69.195V362.322C69.195 361.768 69.0508 361.336 68.7624 361.024C68.4741 360.709 68.078 360.552 67.5742 360.552C67.2295 360.552 66.9229 360.626 66.6545 360.776C66.3893 360.925 66.1789 361.143 66.0231 361.432C65.8706 361.717 65.7944 362.062 65.7944 362.466ZM75.8768 370.023C75.2702 370.023 74.7482 369.943 74.3107 369.784C73.8765 369.625 73.5219 369.415 73.2468 369.153C72.9717 368.891 72.7662 368.604 72.6303 368.293L73.908 367.766C73.9975 367.911 74.1168 368.066 74.266 368.228C74.4184 368.394 74.6239 368.535 74.8825 368.651C75.1443 368.767 75.4807 368.825 75.8917 368.825C76.4551 368.825 76.9208 368.687 77.2887 368.412C77.6566 368.14 77.8406 367.706 77.8406 367.109V365.608H77.7461C77.6566 365.77 77.5273 365.951 77.3583 366.15C77.1926 366.349 76.9639 366.521 76.6722 366.667C76.3806 366.813 76.0011 366.886 75.5337 366.886C74.9305 366.886 74.387 366.745 73.9031 366.463C73.4225 366.178 73.0413 365.759 72.7596 365.205C72.4812 364.648 72.342 363.964 72.342 363.152C72.342 362.34 72.4795 361.644 72.7546 361.064C73.033 360.484 73.4142 360.04 73.8981 359.732C74.382 359.42 74.9305 359.264 75.5437 359.264C76.0176 359.264 76.4004 359.344 76.6921 359.503C76.9838 359.659 77.2108 359.841 77.3732 360.05C77.5389 360.259 77.6665 360.442 77.756 360.602H77.8654V359.364H79.3221V367.169C79.3221 367.825 79.1696 368.364 78.8647 368.785C78.5598 369.206 78.1471 369.517 77.6268 369.719C77.1097 369.922 76.5264 370.023 75.8768 370.023ZM75.8619 365.653C76.2894 365.653 76.6507 365.553 76.9457 365.354C77.244 365.152 77.4693 364.864 77.6218 364.489C77.7776 364.112 77.8555 363.659 77.8555 363.132C77.8555 362.618 77.7792 362.166 77.6268 361.775C77.4743 361.384 77.2506 361.079 76.9556 360.86C76.6606 360.638 76.296 360.527 75.8619 360.527C75.4144 360.527 75.0415 360.643 74.7433 360.875C74.445 361.104 74.2196 361.415 74.0671 361.81C73.918 362.204 73.8434 362.645 73.8434 363.132C73.8434 363.633 73.9196 364.072 74.0721 364.45C74.2246 364.827 74.4499 365.122 74.7482 365.335C75.0498 365.547 75.421 365.653 75.8619 365.653ZM87.038 361.228L85.6907 361.467C85.6344 361.294 85.5449 361.13 85.4222 360.974C85.3029 360.819 85.1405 360.691 84.935 360.592C84.7295 360.492 84.4727 360.442 84.1644 360.442C83.7435 360.442 83.3922 360.537 83.1104 360.726C82.8287 360.911 82.6879 361.152 82.6879 361.447C82.6879 361.702 82.7823 361.907 82.9712 362.063C83.1602 362.219 83.4651 362.347 83.886 362.446L85.0991 362.724C85.8017 362.887 86.3254 363.137 86.6701 363.475C87.0148 363.813 87.1871 364.252 87.1871 364.793C87.1871 365.25 87.0546 365.658 86.7894 366.016C86.5276 366.37 86.1613 366.649 85.6907 366.851C85.2234 367.053 84.6815 367.154 84.065 367.154C83.2099 367.154 82.5122 366.972 81.9719 366.607C81.4317 366.239 81.1003 365.717 80.9776 365.041L82.4144 364.822C82.5039 365.197 82.6879 365.48 82.9663 365.673C83.2447 365.862 83.6076 365.956 84.055 365.956C84.5423 365.956 84.9317 365.855 85.2234 365.653C85.515 365.447 85.6609 365.197 85.6609 364.902C85.6609 364.663 85.5714 364.463 85.3924 364.3C85.2167 364.138 84.9466 364.015 84.582 363.933L83.2894 363.649C82.5768 363.487 82.0498 363.228 81.7085 362.874C81.3704 362.519 81.2013 362.07 81.2013 361.526C81.2013 361.076 81.3273 360.681 81.5792 360.343C81.8311 360.005 82.1791 359.741 82.6232 359.553C83.0674 359.36 83.5761 359.264 84.1495 359.264C84.9748 359.264 85.6244 359.443 86.0984 359.801C86.5723 360.156 86.8855 360.631 87.038 361.228Z" fill="#0F172B"/>
<path d="M14.3331 411.818H16.0781L18.7379 416.447H18.8473L21.5071 411.818H23.2521L19.5582 418.003V422H18.027V418.003L14.3331 411.818ZM26.5421 422.154C25.8262 422.154 25.2014 421.99 24.6678 421.662C24.1342 421.334 23.7199 420.875 23.4249 420.285C23.1299 419.695 22.9824 419.005 22.9824 418.217C22.9824 417.424 23.1299 416.732 23.4249 416.138C23.7199 415.545 24.1342 415.085 24.6678 414.756C25.2014 414.428 25.8262 414.264 26.5421 414.264C27.258 414.264 27.8828 414.428 28.4164 414.756C28.95 415.085 29.3643 415.545 29.6593 416.138C29.9542 416.732 30.1017 417.424 30.1017 418.217C30.1017 419.005 29.9542 419.695 29.6593 420.285C29.3643 420.875 28.95 421.334 28.4164 421.662C27.8828 421.99 27.258 422.154 26.5421 422.154ZM26.5471 420.906C27.0111 420.906 27.3955 420.784 27.7005 420.538C28.0054 420.293 28.2308 419.967 28.3766 419.559C28.5257 419.151 28.6003 418.702 28.6003 418.212C28.6003 417.724 28.5257 417.277 28.3766 416.869C28.2308 416.458 28.0054 416.129 27.7005 415.88C27.3955 415.631 27.0111 415.507 26.5471 415.507C26.0797 415.507 25.6919 415.631 25.3837 415.88C25.0788 416.129 24.8517 416.458 24.7026 416.869C24.5568 417.277 24.4838 417.724 24.4838 418.212C24.4838 418.702 24.5568 419.151 24.7026 419.559C24.8517 419.967 25.0788 420.293 25.3837 420.538C25.6919 420.784 26.0797 420.906 26.5471 420.906ZM36.5984 418.833V414.364H38.0898V422H36.6282V420.678H36.5487C36.373 421.085 36.0913 421.425 35.7035 421.697C35.319 421.965 34.8401 422.099 34.2667 422.099C33.7762 422.099 33.342 421.992 32.9641 421.776C32.5896 421.558 32.2946 421.234 32.0792 420.807C31.8671 420.379 31.761 419.851 31.761 419.221V414.364H33.2475V419.042C33.2475 419.562 33.3917 419.977 33.68 420.285C33.9684 420.593 34.3429 420.747 34.8036 420.747C35.082 420.747 35.3588 420.678 35.6339 420.538C35.9123 420.399 36.1426 420.189 36.3249 419.907C36.5105 419.625 36.6017 419.267 36.5984 418.833ZM40.0872 422V414.364H41.524V415.577H41.6035C41.7427 415.166 41.988 414.843 42.3393 414.607C42.694 414.369 43.095 414.249 43.5424 414.249C43.6352 414.249 43.7446 414.253 43.8706 414.259C43.9998 414.266 44.1009 414.274 44.1738 414.284V415.706C44.1142 415.689 44.0081 415.671 43.8556 415.651C43.7032 415.628 43.5507 415.616 43.3983 415.616C43.0469 415.616 42.7337 415.691 42.4586 415.84C42.1868 415.986 41.9714 416.19 41.8123 416.452C41.6532 416.71 41.5737 417.005 41.5737 417.337V422H40.0872ZM54.8379 414.493C54.7849 414.022 54.5661 413.658 54.1816 413.399C53.7972 413.137 53.3133 413.006 52.7299 413.006C52.3123 413.006 51.9511 413.073 51.6461 413.205C51.3412 413.335 51.1042 413.513 50.9352 413.742C50.7695 413.968 50.6866 414.224 50.6866 414.513C50.6866 414.755 50.743 414.964 50.8556 415.139C50.9717 415.315 51.1225 415.462 51.3081 415.582C51.497 415.698 51.6992 415.795 51.9146 415.875C52.13 415.951 52.3372 416.014 52.536 416.064L53.5304 416.322C53.8552 416.402 54.1883 416.51 54.5297 416.646C54.871 416.781 55.1876 416.96 55.4792 417.183C55.7709 417.405 56.0062 417.68 56.1852 418.008C56.3675 418.336 56.4586 418.729 56.4586 419.186C56.4586 419.763 56.3095 420.275 56.0112 420.722C55.7162 421.17 55.287 421.523 54.7235 421.781C54.1634 422.04 53.4856 422.169 52.6902 422.169C51.9279 422.169 51.2683 422.048 50.7115 421.806C50.1547 421.564 49.7188 421.221 49.4039 420.777C49.0891 420.33 48.9151 419.799 48.8819 419.186H50.4231C50.4529 419.554 50.5723 419.861 50.7811 420.106C50.9932 420.348 51.2633 420.528 51.5914 420.648C51.9229 420.764 52.2858 420.822 52.6802 420.822C53.1144 420.822 53.5005 420.754 53.8386 420.618C54.18 420.479 54.4484 420.286 54.644 420.041C54.8395 419.793 54.9373 419.503 54.9373 419.171C54.9373 418.87 54.8511 418.623 54.6788 418.43C54.5098 418.238 54.2794 418.079 53.9877 417.953C53.6994 417.827 53.3729 417.716 53.0083 417.62L51.8052 417.292C50.9899 417.07 50.3436 416.743 49.8663 416.312C49.3923 415.882 49.1554 415.312 49.1554 414.602C49.1554 414.016 49.3145 413.504 49.6326 413.066C49.9508 412.629 50.3817 412.289 50.9252 412.047C51.4688 411.802 52.082 411.679 52.7647 411.679C53.4541 411.679 54.0623 411.8 54.5893 412.042C55.1196 412.284 55.5372 412.617 55.8422 413.041C56.1471 413.462 56.3062 413.946 56.3194 414.493H54.8379ZM61.7397 414.364V415.557H57.5685V414.364H61.7397ZM58.6871 412.534H60.1737V419.758C60.1737 420.046 60.2167 420.263 60.3029 420.409C60.3891 420.552 60.5001 420.649 60.636 420.702C60.7752 420.752 60.926 420.777 61.0884 420.777C61.2077 420.777 61.3121 420.769 61.4016 420.752C61.4911 420.736 61.5607 420.722 61.6104 420.712L61.8789 421.94C61.7927 421.973 61.6701 422.007 61.511 422.04C61.3519 422.076 61.1531 422.096 60.9144 422.099C60.5233 422.106 60.1587 422.036 59.8207 421.891C59.4826 421.745 59.2092 421.519 59.0004 421.214C58.7915 420.91 58.6871 420.527 58.6871 420.066V412.534ZM66.5186 422.154C65.8027 422.154 65.178 421.99 64.6444 421.662C64.1107 421.334 63.6964 420.875 63.4015 420.285C63.1065 419.695 62.959 419.005 62.959 418.217C62.959 417.424 63.1065 416.732 63.4015 416.138C63.6964 415.545 64.1107 415.085 64.6444 414.756C65.178 414.428 65.8027 414.264 66.5186 414.264C67.2346 414.264 67.8593 414.428 68.3929 414.756C68.9266 415.085 69.3408 415.545 69.6358 416.138C69.9308 416.732 70.0783 417.424 70.0783 418.217C70.0783 419.005 69.9308 419.695 69.6358 420.285C69.3408 420.875 68.9266 421.334 68.3929 421.662C67.8593 421.99 67.2346 422.154 66.5186 422.154ZM66.5236 420.906C66.9876 420.906 67.3721 420.784 67.677 420.538C67.9819 420.293 68.2073 419.967 68.3532 419.559C68.5023 419.151 68.5769 418.702 68.5769 418.212C68.5769 417.724 68.5023 417.277 68.3532 416.869C68.2073 416.458 67.9819 416.129 67.677 415.88C67.3721 415.631 66.9876 415.507 66.5236 415.507C66.0563 415.507 65.6685 415.631 65.3603 415.88C65.0553 416.129 64.8283 416.458 64.6792 416.869C64.5333 417.277 64.4604 417.724 64.4604 418.212C64.4604 418.702 64.5333 419.151 64.6792 419.559C64.8283 419.967 65.0553 420.293 65.3603 420.538C65.6685 420.784 66.0563 420.906 66.5236 420.906ZM71.7376 422V414.364H73.1744V415.577H73.2539C73.3931 415.166 73.6384 414.843 73.9897 414.607C74.3443 414.369 74.7454 414.249 75.1928 414.249C75.2856 414.249 75.395 414.253 75.521 414.259C75.6502 414.266 75.7513 414.274 75.8242 414.284V415.706C75.7646 415.689 75.6585 415.671 75.506 415.651C75.3536 415.628 75.2011 415.616 75.0487 415.616C74.6973 415.616 74.3841 415.691 74.109 415.84C73.8372 415.986 73.6218 416.19 73.4627 416.452C73.3036 416.71 73.2241 417.005 73.2241 417.337V422H71.7376ZM79.2646 422.169C78.7807 422.169 78.3432 422.08 77.9521 421.901C77.561 421.718 77.2511 421.455 77.0224 421.11C76.797 420.765 76.6843 420.343 76.6843 419.842C76.6843 419.411 76.7672 419.057 76.9329 418.778C77.0986 418.5 77.3223 418.28 77.604 418.117C77.8858 417.955 78.2006 417.832 78.5487 417.749C78.8967 417.666 79.2513 417.603 79.6126 417.56C80.07 417.507 80.4412 417.464 80.7262 417.431C81.0112 417.395 81.2184 417.337 81.3477 417.257C81.4769 417.178 81.5415 417.048 81.5415 416.869V416.835C81.5415 416.4 81.4189 416.064 81.1737 415.825C80.9317 415.587 80.5704 415.467 80.0898 415.467C79.5894 415.467 79.195 415.578 78.9066 415.8C78.6216 416.019 78.4244 416.263 78.315 416.531L76.918 416.213C77.0837 415.749 77.3256 415.375 77.6438 415.089C77.9653 414.801 78.3349 414.592 78.7525 414.463C79.1701 414.33 79.6093 414.264 80.07 414.264C80.3749 414.264 80.698 414.301 81.0394 414.374C81.3841 414.443 81.7056 414.572 82.0039 414.761C82.3055 414.95 82.5524 415.22 82.7447 415.572C82.9369 415.92 83.033 416.372 83.033 416.929V422H81.5813V420.956H81.5217C81.4255 421.148 81.2814 421.337 81.0891 421.523C80.8969 421.708 80.65 421.862 80.3484 421.985C80.0468 422.108 79.6855 422.169 79.2646 422.169ZM79.5877 420.976C79.9987 420.976 80.35 420.895 80.6417 420.732C80.9367 420.57 81.1604 420.358 81.3129 420.096C81.4686 419.831 81.5465 419.547 81.5465 419.246V418.261C81.4935 418.314 81.3907 418.364 81.2383 418.411C81.0891 418.454 80.9184 418.492 80.7262 418.525C80.534 418.555 80.3467 418.583 80.1644 418.609C79.9821 418.633 79.8297 418.652 79.707 418.669C79.4187 418.705 79.1552 418.767 78.9165 418.853C78.6812 418.939 78.4923 419.063 78.3498 419.226C78.2106 419.385 78.141 419.597 78.141 419.862C78.141 420.23 78.2769 420.509 78.5487 420.697C78.8204 420.883 79.1668 420.976 79.5877 420.976ZM88.2147 425.023C87.6081 425.023 87.0861 424.943 86.6486 424.784C86.2144 424.625 85.8598 424.415 85.5847 424.153C85.3096 423.891 85.1041 423.604 84.9682 423.293L86.2459 422.766C86.3354 422.911 86.4547 423.066 86.6039 423.228C86.7563 423.394 86.9618 423.535 87.2203 423.651C87.4822 423.767 87.8186 423.825 88.2296 423.825C88.793 423.825 89.2587 423.687 89.6266 423.412C89.9945 423.14 90.1784 422.706 90.1784 422.109V420.608H90.084C89.9945 420.77 89.8652 420.951 89.6962 421.15C89.5305 421.349 89.3018 421.521 89.0101 421.667C88.7185 421.813 88.339 421.886 87.8716 421.886C87.2684 421.886 86.7248 421.745 86.2409 421.463C85.7604 421.178 85.3792 420.759 85.0975 420.205C84.8191 419.648 84.6799 418.964 84.6799 418.152C84.6799 417.34 84.8174 416.644 85.0925 416.064C85.3709 415.484 85.7521 415.04 86.236 414.732C86.7199 414.42 87.2684 414.264 87.8816 414.264C88.3555 414.264 88.7383 414.344 89.03 414.503C89.3217 414.659 89.5487 414.841 89.7111 415.05C89.8768 415.259 90.0044 415.442 90.0939 415.602H90.2033V414.364H91.66V422.169C91.66 422.825 91.5075 423.364 91.2026 423.785C90.8977 424.206 90.485 424.517 89.9647 424.719C89.4476 424.922 88.8643 425.023 88.2147 425.023ZM88.1998 420.653C88.6273 420.653 88.9886 420.553 89.2836 420.354C89.5819 420.152 89.8072 419.864 89.9597 419.489C90.1155 419.112 90.1934 418.659 90.1934 418.132C90.1934 417.618 90.1171 417.166 89.9647 416.775C89.8122 416.384 89.5885 416.079 89.2935 415.86C88.9985 415.638 88.6339 415.527 88.1998 415.527C87.7523 415.527 87.3794 415.643 87.0811 415.875C86.7828 416.104 86.5575 416.415 86.405 416.81C86.2559 417.204 86.1813 417.645 86.1813 418.132C86.1813 418.633 86.2575 419.072 86.41 419.45C86.5624 419.827 86.7878 420.122 87.0861 420.335C87.3877 420.547 87.7589 420.653 88.1998 420.653ZM96.9448 422.154C96.1924 422.154 95.5444 421.993 95.0009 421.672C94.4606 421.347 94.043 420.891 93.748 420.305C93.4564 419.715 93.3105 419.024 93.3105 418.232C93.3105 417.449 93.4564 416.76 93.748 416.163C94.043 415.567 94.454 415.101 94.981 414.766C95.5113 414.432 96.1311 414.264 96.8404 414.264C97.2712 414.264 97.6889 414.335 98.0932 414.478C98.4976 414.621 98.8605 414.844 99.182 415.149C99.5035 415.454 99.757 415.85 99.9426 416.337C100.128 416.821 100.221 417.41 100.221 418.102V418.629H94.1507V417.516H98.7644C98.7644 417.125 98.6848 416.778 98.5257 416.477C98.3667 416.172 98.1429 415.931 97.8546 415.756C97.5695 415.58 97.2348 415.492 96.8503 415.492C96.4327 415.492 96.0681 415.595 95.7566 415.8C95.4483 416.003 95.2097 416.268 95.0407 416.596C94.8749 416.921 94.7921 417.274 94.7921 417.655V418.525C94.7921 419.035 94.8816 419.469 95.0605 419.827C95.2428 420.185 95.4964 420.459 95.8212 420.648C96.146 420.833 96.5255 420.926 96.9597 420.926C97.2414 420.926 97.4983 420.886 97.7303 420.807C97.9623 420.724 98.1628 420.601 98.3319 420.439C98.5009 420.277 98.6301 420.076 98.7196 419.837L100.127 420.091C100.014 420.505 99.8117 420.868 99.5201 421.18C99.2317 421.488 98.8688 421.728 98.4313 421.901C97.9971 422.07 97.5016 422.154 96.9448 422.154Z" fill="#0F172B"/>
<path d="M171.239 422.099C170.914 422.095 170.595 422.036 170.28 421.922C169.967 421.808 169.683 421.619 169.428 421.354C169.172 421.089 168.967 420.732 168.813 420.285C168.662 419.837 168.586 419.279 168.586 418.609C168.586 417.974 168.649 417.411 168.774 416.918C168.902 416.426 169.085 416.01 169.325 415.672C169.564 415.331 169.853 415.072 170.191 414.894C170.53 414.717 170.91 414.628 171.331 414.628C171.764 414.628 172.149 414.713 172.485 414.884C172.821 415.054 173.094 415.29 173.302 415.59C173.513 415.891 173.646 416.233 173.703 416.616H172.62C172.547 416.313 172.401 416.066 172.183 415.874C171.965 415.683 171.681 415.587 171.331 415.587C170.798 415.587 170.383 415.819 170.085 416.283C169.789 416.747 169.639 417.392 169.637 418.218H169.69C169.816 418.012 169.97 417.837 170.152 417.692C170.337 417.546 170.543 417.433 170.77 417.355C171 417.275 171.241 417.234 171.494 417.234C171.916 417.234 172.297 417.337 172.638 417.543C172.981 417.747 173.254 418.029 173.458 418.388C173.662 418.748 173.763 419.16 173.763 419.624C173.763 420.088 173.658 420.509 173.447 420.885C173.239 421.261 172.946 421.56 172.567 421.78C172.188 421.998 171.745 422.104 171.239 422.099ZM171.235 421.176C171.514 421.176 171.764 421.107 171.984 420.97C172.205 420.833 172.379 420.648 172.506 420.416C172.634 420.184 172.698 419.925 172.698 419.638C172.698 419.359 172.635 419.105 172.51 418.875C172.387 418.645 172.216 418.463 171.999 418.328C171.783 418.193 171.537 418.126 171.26 418.126C171.049 418.126 170.854 418.166 170.674 418.246C170.496 418.327 170.34 418.438 170.205 418.58C170.07 418.722 169.964 418.886 169.886 419.07C169.81 419.253 169.772 419.446 169.772 419.649C169.772 419.921 169.835 420.174 169.96 420.406C170.088 420.638 170.262 420.825 170.482 420.967C170.705 421.106 170.956 421.176 171.235 421.176ZM175.439 422.067C175.245 422.067 175.078 421.999 174.938 421.862C174.798 421.722 174.729 421.554 174.729 421.357C174.729 421.163 174.798 420.997 174.938 420.86C175.078 420.72 175.245 420.651 175.439 420.651C175.633 420.651 175.8 420.72 175.939 420.86C176.079 420.997 176.149 421.163 176.149 421.357C176.149 421.487 176.116 421.607 176.05 421.716C175.986 421.822 175.9 421.908 175.794 421.972C175.687 422.036 175.569 422.067 175.439 422.067ZM179.437 414.727V422H178.336V415.828H178.294L176.554 416.964V415.913L178.368 414.727H179.437ZM184.164 414.727V422H183.063V415.828H183.02L181.28 416.964V415.913L183.095 414.727H184.164ZM191.153 417.025C191.084 416.809 190.992 416.616 190.876 416.446C190.762 416.273 190.626 416.126 190.467 416.006C190.309 415.883 190.127 415.789 189.924 415.725C189.723 415.661 189.501 415.629 189.26 415.629C188.85 415.629 188.481 415.735 188.152 415.945C187.823 416.156 187.562 416.465 187.371 416.872C187.181 417.277 187.086 417.773 187.086 418.36C187.086 418.95 187.182 419.448 187.374 419.855C187.566 420.262 187.829 420.571 188.162 420.782C188.496 420.993 188.876 421.098 189.302 421.098C189.698 421.098 190.042 421.018 190.336 420.857C190.632 420.696 190.86 420.468 191.021 420.175C191.184 419.879 191.266 419.531 191.266 419.131L191.55 419.184H189.469V418.278H192.328V419.106C192.328 419.717 192.198 420.247 191.937 420.697C191.679 421.144 191.322 421.49 190.865 421.734C190.41 421.978 189.89 422.099 189.302 422.099C188.644 422.099 188.067 421.948 187.569 421.645C187.075 421.342 186.689 420.912 186.412 420.356C186.135 419.797 185.996 419.134 185.996 418.367C185.996 417.787 186.077 417.266 186.238 416.805C186.399 416.343 186.625 415.951 186.916 415.629C187.21 415.305 187.554 415.058 187.949 414.887C188.347 414.714 188.782 414.628 189.253 414.628C189.646 414.628 190.011 414.686 190.35 414.802C190.691 414.918 190.994 415.082 191.259 415.295C191.527 415.509 191.748 415.762 191.923 416.055C192.098 416.347 192.217 416.67 192.278 417.025H191.153ZM193.721 422V414.727H196.384C196.9 414.727 197.328 414.812 197.666 414.983C198.005 415.151 198.258 415.379 198.426 415.668C198.594 415.955 198.678 416.278 198.678 416.638C198.678 416.941 198.623 417.196 198.511 417.405C198.4 417.611 198.251 417.777 198.064 417.902C197.879 418.025 197.676 418.115 197.453 418.172V418.243C197.695 418.255 197.93 418.333 198.16 418.477C198.392 418.619 198.584 418.822 198.735 419.085C198.887 419.347 198.962 419.667 198.962 420.043C198.962 420.415 198.875 420.749 198.7 421.045C198.527 421.338 198.259 421.571 197.897 421.744C197.535 421.915 197.072 422 196.509 422H193.721ZM194.818 421.059H196.402C196.928 421.059 197.304 420.957 197.531 420.754C197.759 420.55 197.872 420.295 197.872 419.99C197.872 419.76 197.814 419.55 197.698 419.358C197.582 419.166 197.416 419.013 197.201 418.9C196.988 418.786 196.735 418.729 196.441 418.729H194.818V421.059ZM194.818 417.874H196.288C196.535 417.874 196.756 417.826 196.952 417.732C197.151 417.637 197.309 417.504 197.425 417.334C197.543 417.161 197.602 416.957 197.602 416.723C197.602 416.422 197.497 416.17 197.286 415.967C197.076 415.763 196.752 415.661 196.317 415.661H194.818V417.874ZM202.949 414.386L200.605 423.094H199.657L202 414.386H202.949ZM209.242 414.727V422H208.141V415.828H208.099L206.358 416.964V415.913L208.173 414.727H209.242ZM213.741 422.121C213.18 422.118 212.701 421.97 212.303 421.677C211.905 421.383 211.601 420.956 211.39 420.395C211.18 419.834 211.074 419.158 211.074 418.367C211.074 417.579 211.18 416.905 211.39 416.347C211.604 415.788 211.909 415.362 212.307 415.068C212.707 414.775 213.185 414.628 213.741 414.628C214.298 414.628 214.775 414.776 215.172 415.072C215.57 415.365 215.874 415.791 216.085 416.35C216.298 416.906 216.405 417.579 216.405 418.367C216.405 419.16 216.299 419.837 216.089 420.398C215.878 420.957 215.574 421.384 215.176 421.68C214.778 421.974 214.3 422.121 213.741 422.121ZM213.741 421.173C214.234 421.173 214.618 420.932 214.895 420.452C215.175 419.971 215.314 419.276 215.314 418.367C215.314 417.763 215.251 417.253 215.123 416.837C214.997 416.418 214.816 416.1 214.579 415.885C214.345 415.667 214.066 415.558 213.741 415.558C213.251 415.558 212.867 415.8 212.587 416.283C212.308 416.766 212.167 417.46 212.165 418.367C212.165 418.973 212.227 419.486 212.353 419.905C212.481 420.321 212.662 420.638 212.896 420.853C213.131 421.066 213.412 421.173 213.741 421.173ZM222.686 417.025C222.617 416.809 222.525 416.616 222.409 416.446C222.295 416.273 222.159 416.126 222 416.006C221.842 415.883 221.661 415.789 221.457 415.725C221.256 415.661 221.034 415.629 220.793 415.629C220.383 415.629 220.014 415.735 219.685 415.945C219.356 416.156 219.096 416.465 218.904 416.872C218.714 417.277 218.62 417.773 218.62 418.36C218.62 418.95 218.716 419.448 218.907 419.855C219.099 420.262 219.362 420.571 219.696 420.782C220.029 420.993 220.409 421.098 220.836 421.098C221.231 421.098 221.575 421.018 221.869 420.857C222.165 420.696 222.393 420.468 222.554 420.175C222.718 419.879 222.799 419.531 222.799 419.131L223.083 419.184H221.002V418.278H223.861V419.106C223.861 419.717 223.731 420.247 223.471 420.697C223.212 421.144 222.855 421.49 222.398 421.734C221.944 421.978 221.423 422.099 220.836 422.099C220.177 422.099 219.6 421.948 219.103 421.645C218.608 421.342 218.222 420.912 217.945 420.356C217.668 419.797 217.529 419.134 217.529 418.367C217.529 417.787 217.61 417.266 217.771 416.805C217.932 416.343 218.158 415.951 218.449 415.629C218.743 415.305 219.087 415.058 219.483 414.887C219.88 414.714 220.315 414.628 220.786 414.628C221.179 414.628 221.545 414.686 221.883 414.802C222.224 414.918 222.527 415.082 222.792 415.295C223.06 415.509 223.281 415.762 223.456 416.055C223.632 416.347 223.75 416.67 223.811 417.025H222.686ZM225.254 422V414.727H227.917C228.434 414.727 228.861 414.812 229.199 414.983C229.538 415.151 229.791 415.379 229.959 415.668C230.127 415.955 230.211 416.278 230.211 416.638C230.211 416.941 230.156 417.196 230.045 417.405C229.933 417.611 229.784 417.777 229.597 417.902C229.412 418.025 229.209 418.115 228.986 418.172V418.243C229.228 418.255 229.463 418.333 229.693 418.477C229.925 418.619 230.117 418.822 230.268 419.085C230.42 419.347 230.496 419.667 230.496 420.043C230.496 420.415 230.408 420.749 230.233 421.045C230.06 421.338 229.792 421.571 229.43 421.744C229.068 421.915 228.605 422 228.042 422H225.254ZM226.351 421.059H227.935C228.461 421.059 228.837 420.957 229.064 420.754C229.292 420.55 229.405 420.295 229.405 419.99C229.405 419.76 229.347 419.55 229.231 419.358C229.115 419.166 228.95 419.013 228.734 418.9C228.521 418.786 228.268 418.729 227.974 418.729H226.351V421.059ZM226.351 417.874H227.822C228.068 417.874 228.289 417.826 228.486 417.732C228.684 417.637 228.842 417.504 228.958 417.334C229.076 417.161 229.135 416.957 229.135 416.723C229.135 416.422 229.03 416.17 228.819 415.967C228.609 415.763 228.286 415.661 227.85 415.661H226.351V417.874ZM237.814 419.738V416.545H238.879V422H237.835V421.055H237.778C237.653 421.347 237.451 421.589 237.174 421.783C236.9 421.975 236.558 422.071 236.148 422.071C235.798 422.071 235.488 421.994 235.218 421.84C234.95 421.684 234.739 421.453 234.586 421.148C234.434 420.842 234.358 420.465 234.358 420.015V416.545H235.42V419.887C235.42 420.259 235.523 420.555 235.729 420.775C235.935 420.995 236.203 421.105 236.532 421.105C236.73 421.105 236.928 421.055 237.125 420.956C237.324 420.857 237.488 420.706 237.618 420.505C237.751 420.304 237.816 420.048 237.814 419.738ZM244.393 417.877L243.431 418.048C243.39 417.924 243.326 417.807 243.239 417.696C243.154 417.585 243.038 417.494 242.891 417.423C242.744 417.352 242.561 417.316 242.34 417.316C242.04 417.316 241.789 417.384 241.588 417.518C241.386 417.651 241.286 417.823 241.286 418.033C241.286 418.216 241.353 418.362 241.488 418.474C241.623 418.585 241.841 418.676 242.142 418.747L243.008 418.946C243.51 419.062 243.884 419.241 244.13 419.482C244.376 419.724 244.499 420.037 244.499 420.423C244.499 420.75 244.405 421.041 244.215 421.297C244.028 421.55 243.767 421.749 243.431 421.893C243.097 422.038 242.71 422.11 242.269 422.11C241.659 422.11 241.16 421.98 240.774 421.719C240.388 421.457 240.152 421.084 240.064 420.601L241.09 420.445C241.154 420.712 241.286 420.915 241.485 421.052C241.683 421.187 241.943 421.254 242.262 421.254C242.61 421.254 242.888 421.182 243.097 421.038C243.305 420.891 243.409 420.712 243.409 420.501C243.409 420.331 243.345 420.188 243.218 420.072C243.092 419.956 242.899 419.868 242.639 419.809L241.715 419.607C241.206 419.491 240.83 419.306 240.586 419.053C240.345 418.799 240.224 418.478 240.224 418.09C240.224 417.768 240.314 417.487 240.494 417.245C240.674 417.004 240.922 416.815 241.24 416.68C241.557 416.543 241.92 416.474 242.33 416.474C242.919 416.474 243.383 416.602 243.722 416.858C244.06 417.111 244.284 417.451 244.393 417.877ZM248.018 422.11C247.48 422.11 247.018 421.995 246.629 421.766C246.243 421.534 245.945 421.208 245.734 420.789C245.526 420.368 245.422 419.874 245.422 419.308C245.422 418.75 245.526 418.257 245.734 417.831C245.945 417.405 246.239 417.072 246.615 416.833C246.994 416.594 247.437 416.474 247.943 416.474C248.251 416.474 248.549 416.525 248.838 416.627C249.127 416.729 249.386 416.889 249.616 417.107C249.845 417.324 250.027 417.607 250.159 417.955C250.292 418.301 250.358 418.721 250.358 419.216V419.592H246.022V418.797H249.317C249.317 418.518 249.261 418.27 249.147 418.055C249.033 417.837 248.874 417.665 248.668 417.54C248.464 417.414 248.225 417.352 247.95 417.352C247.652 417.352 247.392 417.425 247.169 417.572C246.949 417.716 246.778 417.906 246.658 418.14C246.539 418.372 246.48 418.624 246.48 418.896V419.518C246.48 419.882 246.544 420.192 246.672 420.448C246.802 420.704 246.983 420.899 247.215 421.034C247.447 421.167 247.718 421.233 248.028 421.233C248.23 421.233 248.413 421.205 248.579 421.148C248.745 421.089 248.888 421.001 249.009 420.885C249.129 420.769 249.222 420.626 249.286 420.455L250.29 420.636C250.21 420.932 250.066 421.192 249.857 421.414C249.651 421.634 249.392 421.806 249.08 421.929C248.769 422.05 248.415 422.11 248.018 422.11ZM253.578 422.107C253.138 422.107 252.745 421.994 252.399 421.769C252.056 421.542 251.786 421.219 251.589 420.8C251.395 420.378 251.298 419.873 251.298 419.283C251.298 418.694 251.396 418.19 251.593 417.771C251.792 417.352 252.064 417.031 252.41 416.808C252.755 416.586 253.147 416.474 253.585 416.474C253.924 416.474 254.196 416.531 254.402 416.645C254.61 416.756 254.771 416.886 254.885 417.036C255.001 417.185 255.091 417.316 255.155 417.43H255.219V414.727H256.28V422H255.243V421.151H255.155C255.091 421.267 254.998 421.4 254.878 421.549C254.759 421.698 254.596 421.828 254.388 421.94C254.179 422.051 253.909 422.107 253.578 422.107ZM253.812 421.201C254.118 421.201 254.376 421.121 254.586 420.96C254.8 420.796 254.961 420.57 255.069 420.281C255.181 419.992 255.236 419.656 255.236 419.273C255.236 418.894 255.182 418.562 255.073 418.278C254.964 417.994 254.804 417.773 254.594 417.614C254.383 417.456 254.122 417.376 253.812 417.376C253.493 417.376 253.226 417.459 253.013 417.625C252.8 417.791 252.639 418.017 252.53 418.303C252.424 418.59 252.371 418.913 252.371 419.273C252.371 419.637 252.425 419.965 252.534 420.256C252.643 420.548 252.804 420.778 253.017 420.949C253.232 421.117 253.497 421.201 253.812 421.201Z" fill="#62748E"/>
<g clip-path="url(#clip0_14_610)">
<rect width="34.8571" height="4" transform="translate(14 438)" fill="#615FFF"/>
<rect width="34.8571" height="4" transform="translate(48.8572 438)" fill="#615FFF"/>
<rect width="34.8571" height="4" transform="translate(83.7144 438)" fill="#615FFF"/>
<rect width="34.8571" height="4" transform="translate(118.572 438)" fill="#615FFF"/>
<rect width="34.8571" height="4" transform="translate(153.428 438)" fill="white"/>
<rect width="34.8571" height="4" transform="translate(188.286 438)" fill="white"/>
<rect width="34.8571" height="4" transform="translate(223.143 438)" fill="white"/>
</g>
<defs>
<clipPath id="clip0_14_610">
<rect x="14" y="438" width="244" height="4" rx="2" fill="white"/>
</clipPath>
</defs>
</svg>
